<svg id="Layer_1" enable-background="new 0 0 335.2 335.2" viewBox="0 0 335.2 335.2" xmlns="http://www.w3.org/2000/svg"><path d="m185.9 326.1c-12.2 12.2-32 12.2-44.2 0l-132.6-132.6c-12.2-12.2-12.2-32 0-44.2l132.6-132.6c12.2-12.2 32-12.2 44.2 0l132.6 132.6c12.2 12.2 12.2 32 0 44.2z" fill="#006599"/><path d="m193.5 318.5c-12.2 12.2-32 12.2-44.2 0l-132.6-132.6c-12.2-12.2-12.2-32 0-44.2l132.6-132.6c12.2-12.2 32-12.2 44.2 0l132.6 132.6c12.2 12.2 12.2 32 0 44.2z" fill="#0084c7"/><path d="m123.5 84.9c-15.2 0-27.6 5.9-37.1 17.6-9.5 11.7-14.3 26.8-14.3 45.4v32.1c0 18.6 5 33.8 14.9 45.5 9.9 11.7 22.8 17.5 38.6 17.5 15.8 0 27.8-4.7 36.1-14.2 8.3-9.5 12.7-23.2 13.3-41.2l-.2-.6h-28.9c-.4 10-2.1 17.3-5.1 21.8-3 4.6-8.1 6.9-15.2 6.9-7.4 0-13.2-3.3-17.4-9.8-4.2-6.5-6.3-15.1-6.3-25.7v-32.3c0-10.5 1.9-19.1 5.8-25.6 3.9-6.5 9.2-9.8 15.9-9.8 8 0 13.6 2.4 16.9 7.3 3.3 4.9 5.2 12.3 5.6 22.3h28.9l.2-.6c-1.1-18-5.9-31.9-14.5-41.7-8.7-10-21-14.9-37.2-14.9" fill="#fff"/><path d="m265.7 174.3c-3.6-6.3-9.1-10.5-16.6-12.6 6-3 10.4-7.4 13.3-13.2 2.9-5.9 4.3-12.6 4.3-20.1 0-14.4-4.5-25.2-13.4-32.5-8.9-7.3-21.3-10.9-37.2-10.9h-58.7c16.3 8.8 27.5 26.1 27.5 45.9v67.5c0 12.2-4.3 24.1-12.2 33.4-3.6 4.4-7.9 8.1-12.5 11.1h62.4c15.6 0 27.7-3.9 36-11.8 8.4-7.9 12.6-19.5 12.6-34.9-.1-8.3-1.9-15.6-5.5-21.9m-63.7-61.2h14.2c7 0 12.2 1.5 15.6 4.6 3.4 3.1 5.1 8 5.1 14.7 0 5.9-1.7 10.4-5 13.5-3.3 3.1-8.4 4.7-15.1 4.8h-14.8zm34.7 97c-3.2 3.1-7.9 4.6-14.2 4.6h-20.5v-39.6h22.1c6.1 0 10.5 1.8 13.2 5.3 2.7 3.5 4.1 8.7 4.1 15.6.1 6.3-1.5 11-4.7 14.1" fill="#fff"/><path d="m202 113.1h14.1c7 0 12.2 1.5 15.6 4.6 3.4 3.1 5.1 8 5.1 14.7 0 5.9-1.7 10.4-5 13.5-3.3 3.1-8.4 4.7-15.1 4.8h-14.7z" fill="#004366"/><path d="m236.7 210.1c-3.2 3.1-7.9 4.6-14.2 4.6h-20.5v-39.6h22.1c6.1 0 10.5 1.8 13.2 5.3 2.7 3.5 4.1 8.7 4.1 15.6.1 6.3-1.5 11-4.7 14.1" fill="#004366"/><path d="m333 175.4l-74.9-74.9c5.7 7 8.6 16.2 8.6 27.8 0 7.5-1.4 14.2-4.3 20.1-2.9 5.9-7.3 10.3-13.3 13.2 7.5 2.1 13 6.3 16.6 12.6 3.6 6.3 5.4 13.6 5.4 21.9 0 15.4-4.2 27.1-12.6 34.9-8.4 7.9-20.4 11.8-36 11.8h-62.4c4.7-3 8.9-6.7 12.5-11.1 7.9-9.4 12.2-21.3 12.2-33.4v-67.5c0-19.8-11.1-37.1-27.5-45.9h-34.8l0 0c .3 0 .6 0 .9 0 16.2 0 28.5 4.9 37.1 14.7 8.6 9.8 13.4 23.7 14.5 41.7l-.2.6h-28.8c-.4-10-2.3-17.4-5.6-22.3-3.3-4.9-9-7.3-16.9-7.3-6.7 0-12 3.3-15.9 9.8-3.9 6.5-5.8 15-5.8 25.6v32.3c0 10.6 2.1 19.2 6.3 25.7 4.2 6.5 10 9.8 17.4 9.8 7.1 0 12.2-2.3 15.2-6.9 3-4.6 4.7-11.8 5.1-21.8h28.9l.2.6c-.6 18-5 31.7-13.3 41.2-8.3 9.5-20.3 14.2-36.1 14.2-13.4 0-24.7-4.2-33.8-12.6l93.9 93.9c2.9-1.4 5.5-3.4 7.9-5.7l132.6-132.6c3.1-3 5.4-6.6 6.9-10.4" fill="#006599"/><path d="m258.1 100.5c5.7 7 8.6 16.2 8.6 27.8 0 7.5-1.4 14.2-4.3 20.1-2.9 5.9-7.3 10.3-13.3 13.2 7.5 2.1 13 6.3 16.6 12.6 3.6 6.3 5.4 13.6 5.4 21.9 0 15.4-4.2 27.1-12.6 34.9-8.4 7.9-20.4 11.8-36 11.8h-62.4l54.5 54.5 54.5-54.5 57-57c3.1-3.1 5.4-6.6 6.9-10.5z" fill="#004366"/></svg>