<?xml version="1.0" encoding="utf-8"?>
<!-- Generator: Adobe Illustrator 20.1.0, SVG Export Plug-In . SVG Version: 6.00 Build 0)  -->
<svg version="1.1" id="Layer_1" xmlns="http://www.w3.org/2000/svg" xmlns:xlink="http://www.w3.org/1999/xlink" x="0px" y="0px"
	 viewBox="0 0 335.2 335.2" style="enable-background:new 0 0 335.2 335.2;" xml:space="preserve">
<style type="text/css">
	.st0{fill:#006599;}
	.st1{fill:#0084C7;}
	.st2{fill:#FFFFFF;}
	.st3{fill:#004366;}
</style>
<path class="st0" d="M185.9,326.1c-12.2,12.2-32,12.2-44.2,0L9.1,193.5c-12.2-12.2-12.2-32,0-44.2L141.7,16.7
	c12.2-12.2,32-12.2,44.2,0l132.6,132.6c12.2,12.2,12.2,32,0,44.2L185.9,326.1z"/>
<path class="st1" d="M193.5,318.5c-12.2,12.2-32,12.2-44.2,0L16.7,185.9c-12.2-12.2-12.2-32,0-44.2L149.3,9.1
	c12.2-12.2,32-12.2,44.2,0l132.6,132.6c12.2,12.2,12.2,32,0,44.2L193.5,318.5z"/>
<path class="st2" d="M123.5,84.9c-15.2,0-27.6,5.9-37.1,17.6c-9.5,11.7-14.3,26.8-14.3,45.4v32.1c0,18.6,5,33.8,14.9,45.5
	c9.9,11.7,22.8,17.5,38.6,17.5c15.8,0,27.8-4.7,36.1-14.2c8.3-9.5,12.7-23.2,13.3-41.2l-0.2-0.6h-28.9c-0.4,10-2.1,17.3-5.1,21.8
	c-3,4.6-8.1,6.9-15.2,6.9c-7.4,0-13.2-3.3-17.4-9.8c-4.2-6.5-6.3-15.1-6.3-25.7v-32.3c0-10.5,1.9-19.1,5.8-25.6
	c3.9-6.5,9.2-9.8,15.9-9.8c8,0,13.6,2.4,16.9,7.3c3.3,4.9,5.2,12.3,5.6,22.3h28.9l0.2-0.6c-1.1-18-5.9-31.9-14.5-41.7
	C152,89.8,139.7,84.9,123.5,84.9"/>
<path class="st2" d="M265.7,174.3c-3.6-6.3-9.1-10.5-16.6-12.6c6-3,10.4-7.4,13.3-13.2c2.9-5.9,4.3-12.6,4.3-20.1
	c0-14.4-4.5-25.2-13.4-32.5c-8.9-7.3-21.3-10.9-37.2-10.9h-58.7c16.3,8.8,27.5,26.1,27.5,45.9v67.5c0,12.2-4.3,24.1-12.2,33.4
	c-3.6,4.4-7.9,8.1-12.5,11.1h62.4c15.6,0,27.7-3.9,36-11.8c8.4-7.9,12.6-19.5,12.6-34.9C271.1,187.9,269.3,180.6,265.7,174.3
	 M202,113.1h14.2c7,0,12.2,1.5,15.6,4.6c3.4,3.1,5.1,8,5.1,14.7c0,5.9-1.7,10.4-5,13.5c-3.3,3.1-8.4,4.7-15.1,4.8H202V113.1z
	 M236.7,210.1c-3.2,3.1-7.9,4.6-14.2,4.6H202v-39.6h22.1c6.1,0,10.5,1.8,13.2,5.3c2.7,3.5,4.1,8.7,4.1,15.6
	C241.5,202.3,239.9,207,236.7,210.1"/>
<path class="st3" d="M202,113.1h14.1c7,0,12.2,1.5,15.6,4.6c3.4,3.1,5.1,8,5.1,14.7c0,5.9-1.7,10.4-5,13.5
	c-3.3,3.1-8.4,4.7-15.1,4.8H202V113.1z"/>
<path class="st3" d="M236.7,210.1c-3.2,3.1-7.9,4.6-14.2,4.6H202v-39.6h22.1c6.1,0,10.5,1.8,13.2,5.3c2.7,3.5,4.1,8.7,4.1,15.6
	C241.5,202.3,239.9,207,236.7,210.1"/>
<path class="st0" d="M333,175.4l-74.9-74.9c5.7,7,8.6,16.2,8.6,27.8c0,7.5-1.4,14.2-4.3,20.1c-2.9,5.9-7.3,10.3-13.3,13.2
	c7.5,2.1,13,6.3,16.6,12.6c3.6,6.3,5.4,13.6,5.4,21.9c0,15.4-4.2,27.1-12.6,34.9c-8.4,7.9-20.4,11.8-36,11.8h-62.4
	c4.7-3,8.9-6.7,12.5-11.1c7.9-9.4,12.2-21.3,12.2-33.4v-67.5c0-19.8-11.1-37.1-27.5-45.9l-34.8,0l0,0c0.3,0,0.6,0,0.9,0
	c16.2,0,28.5,4.9,37.1,14.7c8.6,9.8,13.4,23.7,14.5,41.7l-0.2,0.6H146c-0.4-10-2.3-17.4-5.6-22.3c-3.3-4.9-9-7.3-16.9-7.3
	c-6.7,0-12,3.3-15.9,9.8c-3.9,6.5-5.8,15-5.8,25.6v32.3c0,10.6,2.1,19.2,6.3,25.7c4.2,6.5,10,9.8,17.4,9.8c7.1,0,12.2-2.3,15.2-6.9
	c3-4.6,4.7-11.8,5.1-21.8h28.9l0.2,0.6c-0.6,18-5,31.7-13.3,41.2c-8.3,9.5-20.3,14.2-36.1,14.2c-13.4,0-24.7-4.2-33.8-12.6
	l93.9,93.9c2.9-1.4,5.5-3.4,7.9-5.7l132.6-132.6C329.2,182.8,331.5,179.2,333,175.4"/>
<path class="st3" d="M258.1,100.5c5.7,7,8.6,16.2,8.6,27.8c0,7.5-1.4,14.2-4.3,20.1c-2.9,5.9-7.3,10.3-13.3,13.2
	c7.5,2.1,13,6.3,16.6,12.6c3.6,6.3,5.4,13.6,5.4,21.9c0,15.4-4.2,27.1-12.6,34.9c-8.4,7.9-20.4,11.8-36,11.8h-62.4l54.5,54.5
	l54.5-54.5l57-57c3.1-3.1,5.4-6.6,6.9-10.5L258.1,100.5z"/>
</svg>
