<svg id="Layer_1" enable-background="new 0 0 216.5 250" height="250" viewBox="0 0 216.5 250" width="216.5" xmlns="http://www.w3.org/2000/svg"><path d="m108.3 0l-108.3 62.5v125l108.3 62.5 108.3-62.5v-125zm101.8 183.8l-101.8 58.8-101.9-58.8v-117.6l101.9-58.8 101.8 58.8zm-6.5-3.7l-95.4 55.1-95.4-55.1v-110.2l95.4-55.1 95.4 55.1z" fill="#231f20"/><path d="m64.8 167.7l4 16.5.3 1.7.3-1.7 4.2-16.9h4.4l-6.5 22.9h-4.4l-4.5-16.9-.3-1.3-.3 1.3-4.5 16.9h-4.5l-6.5-22.9h4.4l4.2 16.9.3 1.7.3-1.7 4.1-16.5z" fill="#fff"/><path d="m83 185.3l-1.7 5h-4.4l8.3-22.9h4.4l8.3 22.9h-4.7l-5.7-17.1-.3-1.2-.3 1.3-2.7 8.2-.3.6.5-.1h2.4c.5 0 .8.1 1.2.3.3.2.6.5.9.8.3.3.5.7.6 1 .2.4.3.8.4 1.1h-6.9z" fill="#fff"/><path d="m107.4 179.6v10.7h-4.4v-10.1l-7.9-12.8h4.9zm2.8-12.2h4.9l-6.7 11c-.2-.3-.4-.6-.7-1-.2-.4-.4-.9-.6-1.4-.1-.5-.2-1-.3-1.6 0-.6.1-1.1.4-1.6z" fill="#fff"/><path d="m130.3 173.9c0 1-.3 2.1-.8 3.2-.6 1.1-1.3 2.2-2.1 3.3s-1.7 2.2-2.6 3.2c-.9 1-1.7 2-2.4 2.8l-.5.6.7-.1h8.2v3.5h-14.5v-1.9c.3-.7.8-1.5 1.3-2.2.6-.8 1.3-1.6 1.9-2.4.7-.8 1.5-1.7 2.2-2.6.8-.8 1.4-1.7 2-2.6s1.1-1.6 1.5-2.4c.4-.8.6-1.5.6-2.2 0-1-.3-1.8-1-2.3-.7-.6-1.5-.8-2.6-.8-.5 0-1 .1-1.7.2s-1.4.4-2.2.8l-1.1-2.9c1-.5 2-.8 2.9-1 .9-.2 1.7-.3 2.4-.3 1.3 0 2.3.1 3.3.4 1 .3 1.8.7 2.5 1.2.7.6 1.3 1.2 1.6 1.9.2.8.4 1.6.4 2.6z" fill="#fff"/><path d="m144.5 190.7c-1.9 0-3.7-.3-5.2-.9-1.5-.6-2.8-1.5-3.8-2.5s-1.8-2.4-2.4-3.8c-.6-1.5-.8-3-.8-4.7s.3-3.2.8-4.7 1.4-2.7 2.4-3.8 2.4-1.9 3.8-2.6c1.5-.6 3.2-.9 5.1-.9.9 0 1.8.1 2.7.3.9.1 1.9.4 2.8.8l-1.1 2.9c-.9-.3-1.7-.5-2.4-.6-.6-.1-1.3-.1-2.1-.1-1.3 0-2.4.3-3.3.8-.9.5-1.7 1.1-2.3 1.9-.6.8-1 1.7-1.4 2.8-.3 1-.5 2.1-.5 3.2 0 1.1.1 2.2.5 3.2.3 1 .8 1.9 1.4 2.8.6.8 1.4 1.5 2.3 1.9.9.5 2 .7 3.3.7 1.4 0 2.8-.3 4.4-1l1.2 2.8c-1 .5-1.9.8-2.8 1.1-.8.3-1.7.4-2.6.4z" fill="#fff"/><path d="m160.9 190.7c-1.4 0-2.7-.2-3.8-.6-1.1-.4-2.1-1-2.9-1.7-.8-.8-1.4-1.7-1.8-2.9-.4-1.2-.6-2.5-.6-4v-14.2h4.4v14.7c0 .8.1 1.6.3 2.3.2.7.6 1.3 1 1.7.4.5.9.8 1.5 1.1.6.3 1.2.3 1.9.3.7 0 1.3-.1 1.9-.3.6-.3 1.1-.6 1.5-1.1.4-.5.8-1 1-1.7.2-.7.3-1.5.3-2.3v-14.7h4.4v14.2c0 1.4-.2 2.6-.6 3.8-.4 1.1-1 2.1-1.8 2.9-.8.8-1.7 1.5-2.9 1.9-1.1.4-2.4.6-3.8.6z" fill="#fff"/><path d="m107.8 151.9c24.6 0 53.3-11 56.3-39.3.6-6.3-3.8-32-22.6-53.3l-16.9 21.7h-33.7l-16.7-21.7c-18.8 21.3-23.3 47.1-22.6 53.3 2.8 28.3 31.6 39.3 56.2 39.3" fill="#fff"/><path d="m109.8 133.4l4.4-6.3c.8-1.2.4-2.8-.8-3.5-1.7-.9-3.5-1.4-5.6-1.4-2 0-3.9.5-5.6 1.4-1.3.7-1.7 2.4-.8 3.5l4.4 6.3c.9 1.4 3.1 1.4 4 0z"/><path d="m118.2 141.4c-4.5 0-8.5-2.6-10.4-6.5-1.9 3.9-5.9 6.5-10.4 6.5-2.8 0-5.4-1-7.6-2.8-.4-.3-.5-1-.1-1.4.3-.4 1-.5 1.4-.1 1.7 1.5 4 2.3 6.3 2.3 4.7 0 8.6-3.3 9.4-7.9.1-.5.5-.8 1-.8.5 0 .9.3 1 .8.8 4.6 4.8 7.9 9.4 7.9 2.4 0 4.6-.8 6.3-2.2.4-.3 1-.3 1.4.1.3.4.3 1-.1 1.4-2.1 1.8-4.8 2.7-7.6 2.7z"/><path d="m163 102.5c-1.3.3-2.7.7-4.2 1-13.6 3.1-31.7 4.9-51 4.9s-37.4-1.7-51-4.9c-1.5-.3-2.9-.7-4.2-1-.2 1-.4 2-.6 3 2.8.8 5.8 1.4 8.9 2 .6 8.2 8.6 14.8 18.5 14.9 8.5.1 15.8-4.7 18.1-11.2 3.5.1 6.9.1 10.3.1 2.8 0 5.7-.1 8.5-.1 2.4 6.5 9.6 11.3 18.1 11.1 9.7-.1 17.6-6.5 18.4-14.6 3.9-.7 7.5-1.5 10.8-2.4-.1-.8-.3-1.7-.6-2.8z"/></svg>