<svg id="Layer_1" enable-background="new 0 0 216.5 250" height="250" viewBox="0 0 216.5 250" width="216.5" xmlns="http://www.w3.org/2000/svg" xmlns:xlink="http://www.w3.org/1999/xlink"><defs><path id="SVGID_1_" d="m108.3 0l-108.3 62.5v125l108.3 62.5 108.3-62.5v-125zm101.8 183.8l-101.8 58.8-101.9-58.8v-117.6l101.9-58.8 101.8 58.8zm-6.5-3.7l-95.4 55.1-95.4-55.1v-110.2l95.4-55.1 95.4 55.1z"/><clipPath id="SVGID_3_"><use overflow="visible" xlink:href="#SVGID_1_"/></clipPath><clipPath id="SVGID_4_"><use overflow="visible" xlink:href="#SVGID_2_"/></clipPath><linearGradient id="SVGID_5_" gradientTransform="matrix(637 0 0 -414 121483.1563 176349.1094)" gradientUnits="userSpaceOnUse" x1="-190.7158" x2="-190.3336" y1="426.1512" y2="425.769"><stop offset="0" stop-color="#00a5b1"/><stop offset="1" stop-color="#00a1ae"/></linearGradient><linearGradient id="SVGID_6_" gradientTransform="matrix(397 0 0 -321 75616.8516 137656.875)" gradientUnits="userSpaceOnUse" x1="-190.6276" x2="-190.2454" y1="427.9647" y2="427.5825"><stop offset="0" stop-color="#047f88"/><stop offset="1" stop-color="#017d88"/></linearGradient><linearGradient id="SVGID_7_" gradientTransform="matrix(306 0 0 -425 58345.918 181030.0469)" gradientUnits="userSpaceOnUse" x1="-190.7866" x2="-190.4043" y1="426.0416" y2="425.6594"><stop offset="0" stop-color="#008591"/><stop offset="1" stop-color="#00a3b0"/></linearGradient><linearGradient id="SVGID_8_" gradientTransform="matrix(278 0 0 -469 53033.2734 200167.4219)" gradientUnits="userSpaceOnUse" x1="-190.7361" x2="-190.3539" y1="426.6401" y2="426.2579"><stop offset="0" stop-color="#008d99"/><stop offset="1" stop-color="#00a5b2"/></linearGradient><linearGradient id="SVGID_9_" gradientTransform="matrix(420 0 0 -439 80668.0234 186705.25)" gradientUnits="userSpaceOnUse" x1="-191.5732" x2="-191.191" y1="425.6993" y2="425.3171"><stop offset="0" stop-color="#009aa5"/><stop offset="1" stop-color="#29bfd1"/></linearGradient><linearGradient id="SVGID_10_" gradientTransform="matrix(249 0 0 -296 48470.3711 125801.3906)" gradientUnits="userSpaceOnUse" x1="-193.1509" x2="-192.7686" y1="425.6994" y2="425.3172"><stop offset="0" stop-color="#38c1d8"/><stop offset="1" stop-color="#10bdcf"/></linearGradient><linearGradient id="SVGID_11_" gradientTransform="matrix(399 0 0 -329 76722.3438 140006.1875)" gradientUnits="userSpaceOnUse" x1="-191.7082" x2="-191.3259" y1="425.9646" y2="425.5824"><stop offset="0" stop-color="#00a6b4"/><stop offset="1" stop-color="#2cbfd1"/></linearGradient><linearGradient id="SVGID_12_" gradientTransform="matrix(182 0 0 -174 35552.4844 75444.4844)" gradientUnits="userSpaceOnUse" x1="-193.5892" x2="-193.207" y1="431.3197" y2="430.9374"><stop offset="0" stop-color="#008b96"/><stop offset="1" stop-color="#008c98"/></linearGradient><linearGradient id="SVGID_13_" gradientTransform="matrix(468 0 0 -341 90106.1016 146284.6563)" gradientUnits="userSpaceOnUse" x1="-191.8195" x2="-191.4373" y1="428.1144" y2="427.7322"><stop offset="0" stop-color="#00919d"/><stop offset="1" stop-color="#008c98"/></linearGradient><linearGradient id="SVGID_14_" gradientTransform="matrix(358 0 0 -255 69152.7344 108261.0313)" gradientUnits="userSpaceOnUse" x1="-192.2468" x2="-191.8645" y1="425.4755" y2="425.0933"><stop offset="0" stop-color="#3ac1d4"/><stop offset="1" stop-color="#00a0ad"/></linearGradient><linearGradient id="SVGID_15_" gradientTransform="matrix(420 0 0 -255 80668.0234 108261.0313)" gradientUnits="userSpaceOnUse" x1="-191.5466" x2="-191.1644" y1="425.4978" y2="425.1156"><stop offset="0" stop-color="#008791"/><stop offset="1" stop-color="#00a1b0"/></linearGradient><linearGradient id="SVGID_16_" gradientTransform="matrix(334 0 0 -469 63786.8281 200167.4219)" gradientUnits="userSpaceOnUse" x1="-190.9276" x2="-190.5454" y1="426.5789" y2="426.1967"><stop offset="0" stop-color="#008994"/><stop offset="1" stop-color="#00a1ad"/></linearGradient><linearGradient id="SVGID_17_" gradientTransform="matrix(334 0 0 -401 63786.8281 171530.1094)" gradientUnits="userSpaceOnUse" x1="-190.8358" x2="-190.4535" y1="427.3145" y2="426.9322"><stop offset="0" stop-color="#00aab8"/><stop offset="1" stop-color="#01a8b5"/></linearGradient><linearGradient id="SVGID_18_" gradientTransform="matrix(924 0 0 -145 176190.875 61451.8477)" gradientUnits="userSpaceOnUse" x1="-190.6439" x2="-190.2617" y1="425.5016" y2="425.1194"><stop offset="0" stop-color="#02828b"/><stop offset="1" stop-color="#057c85"/></linearGradient><linearGradient id="SVGID_19_" gradientTransform="matrix(151 0 0 -888 28657.3418 378054.9375)" gradientUnits="userSpaceOnUse" x1="-190.1721" x2="-189.7899" y1="425.8026" y2="425.4203"><stop offset="0" stop-color="#009aa6"/><stop offset="1" stop-color="#01a1ae"/></linearGradient><linearGradient id="SVGID_20_" gradientTransform="matrix(223 0 0 -463 42390.957 197625.1875)" gradientUnits="userSpaceOnUse" x1="-190.3758" x2="-189.9936" y1="426.6133" y2="426.231"><stop offset="0" stop-color="#0196a2"/><stop offset="1" stop-color="#047f88"/></linearGradient><linearGradient id="SVGID_21_" gradientTransform="matrix(223 0 0 -321 42390.957 137656.875)" gradientUnits="userSpaceOnUse" x1="-190.3296" x2="-189.9474" y1="428.0305" y2="427.6483"><stop offset="0" stop-color="#017e85"/><stop offset="1" stop-color="#017f88"/></linearGradient><linearGradient id="SVGID_22_" gradientTransform="matrix(519 0 0 -331 100011.1641 140695.2656)" gradientUnits="userSpaceOnUse" x1="-192.0008" x2="-191.6185" y1="425.6221" y2="425.2398"><stop offset="0" stop-color="#22bed1"/><stop offset="1" stop-color="#06b5c4"/></linearGradient><linearGradient id="SVGID_23_" gradientTransform="matrix(169 0 0 -174 33023.7813 75444.4844)" gradientUnits="userSpaceOnUse" x1="-193.6855" x2="-193.3033" y1="431.263" y2="430.8808"><stop offset="0" stop-color="#017b85"/><stop offset="1" stop-color="#03727b"/></linearGradient><linearGradient id="lg1"><stop offset="0" stop-color="#02828d"/><stop offset="1" stop-color="#017b85"/></linearGradient><linearGradient id="SVGID_24_" gradientTransform="matrix(549 0 0 -266 105007.5625 114483.2109)" gradientUnits="userSpaceOnUse" x1="-191.024" x2="-190.6417" xlink:href="#lg1" y1="429.1107" y2="428.7285"/><linearGradient id="SVGID_25_" gradientTransform="matrix(597 0 0 -439 114894.2891 187987.25)" gradientUnits="userSpaceOnUse" x1="-191.8298" x2="-191.4475" xlink:href="#lg1" y1="427.4853" y2="427.1031"/><linearGradient id="SVGID_26_" gradientTransform="matrix(239 0 0 -324 47120.9063 138047.4844)" gradientUnits="userSpaceOnUse" x1="-194.6982" x2="-194.316" y1="426.3138" y2="425.9316"><stop offset="0" stop-color="#29bfd1"/><stop offset="1" stop-color="#00a6b4"/></linearGradient><linearGradient id="SVGID_27_" gradientTransform="matrix(930 0 0 -131 178259.3594 55456.293)" gradientUnits="userSpaceOnUse" x1="-191.2873" x2="-190.9051" y1="425.2824" y2="424.9002"><stop offset="0" stop-color="#057c85"/><stop offset="1" stop-color="#008a95"/></linearGradient><linearGradient id="SVGID_28_" gradientTransform="matrix(572 0 0 -462 110330.625 196309.6406)" gradientUnits="userSpaceOnUse" x1="-192.0179" x2="-191.6357" y1="425.5075" y2="425.1253"><stop offset="0" stop-color="#16bdcc"/><stop offset="1" stop-color="#00b2c3"/></linearGradient><linearGradient id="SVGID_29_" gradientTransform="matrix(263 0 0 -525 51698.8203 223118.6094)" gradientUnits="userSpaceOnUse" x1="-194.3366" x2="-193.9543" y1="425.4774" y2="425.0951"><stop offset="0" stop-color="#00b4c4"/><stop offset="1" stop-color="#0097a2"/></linearGradient><linearGradient id="SVGID_30_" gradientTransform="matrix(24 0 0 -1979 6349.5801 841856.8125)" gradientUnits="userSpaceOnUse" x1="-236.2977" x2="-235.9155" y1="425.5921" y2="425.2099"><stop offset="0" stop-color="#009ba8"/><stop offset="1" stop-color="#00858f"/></linearGradient><linearGradient id="SVGID_31_" gradientTransform="matrix(76 0 0 -617 14311.3584 263621.3125)" gradientUnits="userSpaceOnUse" x1="-189.2898" x2="-188.9075" y1="426.788" y2="426.4057"><stop offset="0" stop-color="#017e85"/><stop offset="1" stop-color="#01818b"/></linearGradient><linearGradient id="SVGID_32_" gradientTransform="matrix(973 0 0 -391 185410.4531 167675.6094)" gradientUnits="userSpaceOnUse" x1="-190.6768" x2="-190.2946" y1="427.8893" y2="427.5071"><stop offset="0" stop-color="#01737c"/><stop offset="1" stop-color="#017079"/></linearGradient><linearGradient id="SVGID_33_" gradientTransform="matrix(473 0 0 -391 90037.8281 167675.6094)" gradientUnits="userSpaceOnUse" x1="-190.5047" x2="-190.1225" y1="427.9382" y2="427.556"><stop offset="0" stop-color="#017e85"/><stop offset="1" stop-color="#00828a"/></linearGradient><linearGradient id="SVGID_34_" gradientTransform="matrix(62 0 0 -170 12782.9482 73858.3281)" gradientUnits="userSpaceOnUse" x1="-200.248" x2="-199.8658" y1="431.916" y2="431.5338"><stop offset="0" stop-color="#00a5b2"/><stop offset="1" stop-color="#00a1ae"/></linearGradient><linearGradient id="SVGID_35_" gradientTransform="matrix(636 0 0 -170 122294.4063 73858.3281)" gradientUnits="userSpaceOnUse" x1="-191.748" x2="-191.3658" y1="431.8286" y2="431.4464"><stop offset="0" stop-color="#008c96"/><stop offset="1" stop-color="#008c96"/></linearGradient><linearGradient id="SVGID_36_" gradientTransform="matrix(816 0 0 -75 156628.2656 33530.1055)" gradientUnits="userSpaceOnUse" x1="-191.483" x2="-191.1008" y1="440.7191" y2="440.3369"><stop offset="0" stop-color="#006f76"/><stop offset="1" stop-color="#0095a0"/></linearGradient><linearGradient id="SVGID_37_" gradientTransform="matrix(1165 0 0 -131 222033.6719 57301.293)" gradientUnits="userSpaceOnUse" x1="-190.6546" x2="-190.2725" y1="433.9427" y2="433.5605"><stop offset="0" stop-color="#008590"/><stop offset="1" stop-color="#01818b"/></linearGradient><linearGradient id="SVGID_38_" gradientTransform="matrix(192 0 0 -131 37410.9492 57301.293)" gradientUnits="userSpaceOnUse" x1="-193.2126" x2="-192.8304" y1="434.0192" y2="433.6369"><stop offset="0" stop-color="#006e77"/><stop offset="1" stop-color="#009eaa"/></linearGradient><linearGradient id="SVGID_39_" gradientTransform="matrix(1984 0 0 -44 378251.0313 18428.3613)" gradientUnits="userSpaceOnUse" x1="-190.657" x2="-190.2747" y1="424.6185" y2="424.2363"><stop offset="0" stop-color="#008088"/><stop offset="1" stop-color="#00828c"/></linearGradient><linearGradient id="SVGID_40_" gradientTransform="matrix(1054 0 0 -77 200857.9219 32471.1816)" gradientUnits="userSpaceOnUse" x1="-190.6787" x2="-190.2965" y1="424.9532" y2="424.571"><stop offset="0" stop-color="#017e85"/><stop offset="1" stop-color="#00828c"/></linearGradient><linearGradient id="SVGID_41_" gradientTransform="matrix(166 0 0 -471 31475.5391 200133.5)" gradientUnits="userSpaceOnUse" x1="-189.9886" x2="-189.6064" y1="425.5092" y2="425.127"><stop offset="0" stop-color="#01737c"/><stop offset="1" stop-color="#017f88"/></linearGradient><linearGradient id="SVGID_42_" gradientTransform="matrix(43 0 0 -1976 8013.7529 840574.1875)" gradientUnits="userSpaceOnUse" x1="-188.1091" x2="-187.7269" y1="425.4611" y2="425.0789"><stop offset="0" stop-color="#00858f"/><stop offset="1" stop-color="#02828b"/></linearGradient><linearGradient id="SVGID_43_" gradientTransform="matrix(166 0 0 -1359 31475.5391 578113.5)" gradientUnits="userSpaceOnUse" x1="-190.0562" x2="-189.674" y1="425.5744" y2="425.1922"><stop offset="0" stop-color="#037d84"/><stop offset="1" stop-color="#02848e"/></linearGradient><linearGradient id="SVGID_44_" gradientTransform="matrix(257 0 0 -394 48963.3438 167444.2188)" gradientUnits="userSpaceOnUse" x1="-190.6276" x2="-190.2454" y1="425.5338" y2="425.1515"><stop offset="0" stop-color="#008792"/><stop offset="1" stop-color="#00858e"/></linearGradient><linearGradient id="SVGID_45_" gradientTransform="matrix(613 0 0 -139 116869.2344 58931.6133)" gradientUnits="userSpaceOnUse" x1="-190.7253" x2="-190.343" y1="425.5436" y2="425.1614"><stop offset="0" stop-color="#017b85"/><stop offset="1" stop-color="#057c85"/></linearGradient><linearGradient id="SVGID_46_" gradientTransform="matrix(637 0 0 -412 121483.1563 175243.0313)" gradientUnits="userSpaceOnUse" x1="-190.7517" x2="-190.3694" y1="425.7363" y2="425.3541"><stop offset="0" stop-color="#038890"/><stop offset="1" stop-color="#0095a0"/></linearGradient><linearGradient id="SVGID_47_" gradientTransform="matrix(416 0 0 -439 79549.0391 186705.25)" gradientUnits="userSpaceOnUse" x1="-190.9663" x2="-190.584" y1="425.7856" y2="425.4033"><stop offset="0" stop-color="#00909a"/><stop offset="1" stop-color="#0299a5"/></linearGradient><linearGradient id="SVGID_48_" gradientTransform="matrix(299 0 0 -489 58337.6914 208775.2031)" gradientUnits="userSpaceOnUse" x1="-193.5052" x2="-193.123" y1="426.6316" y2="426.2494"><stop offset="0" stop-color="#008c98"/><stop offset="1" stop-color="#009aa5"/></linearGradient><linearGradient id="SVGID_49_" gradientTransform="matrix(311 0 0 -445 60626.6523 190534.4844)" gradientUnits="userSpaceOnUse" x1="-193.2483" x2="-192.8661" y1="427.5693" y2="427.1871"><stop offset="0" stop-color="#00939d"/><stop offset="1" stop-color="#03787f"/></linearGradient><linearGradient id="SVGID_50_" gradientTransform="matrix(198 0 0 -673 39176.418 286885.0313)" gradientUnits="userSpaceOnUse" x1="-195.0751" x2="-194.6928" y1="426.2735" y2="425.8912"><stop offset="0" stop-color="#00b4c2"/><stop offset="1" stop-color="#00858e"/></linearGradient><linearGradient id="SVGID_51_" gradientTransform="matrix(168 0 0 -934 33649.0313 397689.75)" gradientUnits="userSpaceOnUse" x1="-196.6459" x2="-196.2636" y1="425.8462" y2="425.464"><stop offset="0" stop-color="#008791"/><stop offset="1" stop-color="#008e98"/></linearGradient><linearGradient id="SVGID_52_" gradientTransform="matrix(192 0 0 -520 38226.9492 222449.9219)" gradientUnits="userSpaceOnUse" x1="-195.9842" x2="-195.6019" y1="427.1232" y2="426.7409"><stop offset="0" stop-color="#006f76"/><stop offset="1" stop-color="#007e87"/></linearGradient><linearGradient id="SVGID_53_" gradientTransform="matrix(192 0 0 -1454 38226.9492 618970.75)" gradientUnits="userSpaceOnUse" x1="-195.8862" x2="-195.504" y1="425.759" y2="425.3768"><stop offset="0" stop-color="#0097a2"/><stop offset="1" stop-color="#047f88"/></linearGradient><linearGradient id="SVGID_54_" gradientTransform="matrix(549 0 0 -513 105007.5625 219189.1406)" gradientUnits="userSpaceOnUse" x1="-191.0663" x2="-190.6841" y1="426.8866" y2="426.5043"><stop offset="0" stop-color="#007e86"/><stop offset="1" stop-color="#009fad"/></linearGradient><linearGradient id="SVGID_55_" gradientTransform="matrix(457 0 0 -402 87458.8906 171954.6406)" gradientUnits="userSpaceOnUse" x1="-191.1365" x2="-190.7543" y1="427.2538" y2="426.8716"><stop offset="0" stop-color="#00939d"/><stop offset="1" stop-color="#03b9c6"/></linearGradient><linearGradient id="SVGID_56_" gradientTransform="matrix(236 0 0 -228 45630.6641 97355.7266)" gradientUnits="userSpaceOnUse" x1="-192.3872" x2="-192.0049" y1="427.0273" y2="426.6451"><stop offset="0" stop-color="#36c0d3"/><stop offset="1" stop-color="#42c2d5"/></linearGradient><linearGradient id="SVGID_57_" gradientTransform="matrix(176 0 0 -424 34246.0039 180892.5)" gradientUnits="userSpaceOnUse" x1="-193.0789" x2="-192.6967" y1="426.5851" y2="426.2028"><stop offset="0" stop-color="#4ac4da"/><stop offset="1" stop-color="#49c3d8"/></linearGradient><linearGradient id="SVGID_58_" gradientTransform="matrix(468 0 0 -462 90106.1016 197537.6406)" gradientUnits="userSpaceOnUse" x1="-191.8908" x2="-191.5085" y1="427.0596" y2="426.6774"><stop offset="0" stop-color="#00a7b5"/><stop offset="1" stop-color="#00adb9"/></linearGradient><linearGradient id="SVGID_59_" gradientTransform="matrix(438 0 0 -475 84397.7031 202594.6563)" gradientUnits="userSpaceOnUse" x1="-191.9238" x2="-191.5416" y1="426.4616" y2="426.0794"><stop offset="0" stop-color="#46c3d6"/><stop offset="1" stop-color="#65cae3"/></linearGradient><linearGradient id="SVGID_60_" gradientTransform="matrix(294 0 0 -306 57193.9688 130847.7734)" gradientUnits="userSpaceOnUse" x1="-193.1064" x2="-192.7242" y1="427.2595" y2="426.8773"><stop offset="0" stop-color="#68cbe3"/><stop offset="1" stop-color="#23becc"/></linearGradient><linearGradient id="SVGID_61_" gradientTransform="matrix(294 0 0 -489 57193.9688 208775.2031)" gradientUnits="userSpaceOnUse" x1="-193.0432" x2="-192.6609" y1="426.7402" y2="426.358"><stop offset="0" stop-color="#009eaa"/><stop offset="1" stop-color="#04bcc8"/></linearGradient><linearGradient id="SVGID_62_" gradientTransform="matrix(370 0 0 -513 71320.6953 219189.1406)" gradientUnits="userSpaceOnUse" x1="-191.9763" x2="-191.594" y1="426.8963" y2="426.5141"><stop offset="0" stop-color="#23becc"/><stop offset="1" stop-color="#01aab6"/></linearGradient><linearGradient id="SVGID_63_" gradientTransform="matrix(370 0 0 -475 71320.6953 202594.6563)" gradientUnits="userSpaceOnUse" x1="-192.0483" x2="-191.6661" y1="426.38" y2="425.9977"><stop offset="0" stop-color="#29bece"/><stop offset="1" stop-color="#23becc"/></linearGradient><linearGradient id="SVGID_64_" gradientTransform="matrix(137 0 0 -299 26415.9004 127826)" gradientUnits="userSpaceOnUse" x1="-191.9616" x2="-191.5793" y1="427.2952" y2="426.9129"><stop offset="0" stop-color="#14bcc9"/><stop offset="1" stop-color="#08bccb"/></linearGradient><linearGradient id="SVGID_65_" gradientTransform="matrix(331 0 0 -327 63420.5859 139484.1094)" gradientUnits="userSpaceOnUse" x1="-191.2561" x2="-190.8739" y1="426.6184" y2="426.2362"><stop offset="0" stop-color="#008b93"/><stop offset="1" stop-color="#00a1ad"/></linearGradient><linearGradient id="SVGID_66_" gradientTransform="matrix(333 0 0 -229 63930.082 98108.2656)" gradientUnits="userSpaceOnUse" x1="-191.6038" x2="-191.2216" y1="427.8403" y2="427.4581"><stop offset="0" stop-color="#05b6c5"/><stop offset="1" stop-color="#15bdcc"/></linearGradient><linearGradient id="SVGID_67_" gradientTransform="matrix(254 0 0 -327 48870.1016 139484.1094)" gradientUnits="userSpaceOnUse" x1="-191.7932" x2="-191.4109" y1="426.5755" y2="426.1933"><stop offset="0" stop-color="#00aebc"/><stop offset="1" stop-color="#00b5c1"/></linearGradient><linearGradient id="SVGID_68_" gradientTransform="matrix(324 0 0 -327 62222.3594 139712.1094)" gradientUnits="userSpaceOnUse" x1="-191.5034" x2="-191.1212" y1="427.0749" y2="426.6926"><stop offset="0" stop-color="#4ac4da"/><stop offset="1" stop-color="#36c0d3"/></linearGradient><linearGradient id="SVGID_69_" gradientTransform="matrix(438 0 0 -283 84397.7031 120777.3828)" gradientUnits="userSpaceOnUse" x1="-191.9585" x2="-191.5763" y1="426.789" y2="426.4067"><stop offset="0" stop-color="#43c2d5"/><stop offset="1" stop-color="#68cbe3"/></linearGradient><linearGradient id="SVGID_70_" gradientTransform="matrix(362 0 0 -131 69664.7266 56078.293)" gradientUnits="userSpaceOnUse" x1="-191.7463" x2="-191.364" y1="428.2314" y2="427.8491"><stop offset="0" stop-color="#2fbfd1"/><stop offset="1" stop-color="#57c6dc"/></linearGradient><linearGradient id="SVGID_71_" gradientTransform="matrix(399 0 0 -212 76722.3438 90352.1016)" gradientUnits="userSpaceOnUse" x1="-191.6911" x2="-191.3088" y1="426.6119" y2="426.2297"><stop offset="0" stop-color="#02aebc"/><stop offset="1" stop-color="#3dc2d7"/></linearGradient><linearGradient id="SVGID_72_" gradientTransform="matrix(315 0 0 -326 61061.6406 138863.5625)" gradientUnits="userSpaceOnUse" x1="-192.7136" x2="-192.3314" y1="426.1809" y2="425.7987"><stop offset="0" stop-color="#51c5d9"/><stop offset="1" stop-color="#2abfd0"/></linearGradient><linearGradient id="SVGID_73_" gradientTransform="matrix(315 0 0 -283 61061.6406 120777.3828)" gradientUnits="userSpaceOnUse" x1="-192.6066" x2="-192.2243" y1="426.856" y2="426.4738"><stop offset="0" stop-color="#4fc5da"/><stop offset="1" stop-color="#5ec8e0"/></linearGradient><linearGradient id="SVGID_74_" gradientTransform="matrix(519 0 0 -326 100011.1641 138863.5625)" gradientUnits="userSpaceOnUse" x1="-191.9131" x2="-191.5309" y1="426.2728" y2="425.8905"><stop offset="0" stop-color="#40c2d9"/><stop offset="1" stop-color="#22bed1"/></linearGradient><linearGradient id="SVGID_75_" gradientTransform="matrix(120 0 0 -223 24178.1445 95359.0313)" gradientUnits="userSpaceOnUse" x1="-197.4535" x2="-197.0713" y1="427.3849" y2="427.0027"><stop offset="0" stop-color="#6bcbe3"/><stop offset="1" stop-color="#36c0d3"/></linearGradient><linearGradient id="SVGID_76_" gradientTransform="matrix(315 0 0 -223 61376.6406 95359.0313)" gradientUnits="userSpaceOnUse" x1="-193.2591" x2="-192.8769" y1="427.4762" y2="427.094"><stop offset="0" stop-color="#39c1d3"/><stop offset="1" stop-color="#00adb9"/></linearGradient><linearGradient id="SVGID_77_" gradientTransform="matrix(315 0 0 -324 61376.6406 138047.4844)" gradientUnits="userSpaceOnUse" x1="-193.2934" x2="-192.9111" y1="426.2903" y2="425.9081"><stop offset="0" stop-color="#04afbe"/><stop offset="1" stop-color="#0099a5"/></linearGradient><path id="SVGID_2_" d="m-71.1-250.4h758.3v750.8h-758.3z"/></defs><g clip-path="url(#SVGID_3_)"><g clip-path="url(#SVGID_4_)"><path d="m108 84.8l126.5-98.3-243.5-60z" fill="url(#SVGID_5_)"/><path d="m-42.2 386.7l71.5-122.7 80.2 88.3z" fill="url(#SVGID_6_)"/><path d="m-9-73.5l117 158.3-106.3 4.2z" fill="url(#SVGID_7_)"/><path d="m29.3 264l78.7-179.2-106.3 4.2z" fill="url(#SVGID_8_)"/><path d="m211.6-181.3l22.9 167.8 137.6-125.7z" fill="url(#SVGID_9_)"/><path d="m372.1-139.2l95.2-62-80.3 113.2z" fill="url(#SVGID_10_)"/><path d="m234.5-13.5l137.6-125.7 14.9 51.2z" fill="url(#SVGID_11_)"/><path d="m319.4 394.7l45.8 66.5 23.7-22.1z" fill="url(#SVGID_12_)"/><path d="m319.4 394.7l178.9-86-109.4 130.4z" fill="url(#SVGID_13_)"/><path d="m372.1-139.2l95.2-62-136.8-35.5z" fill="url(#SVGID_14_)"/><path d="m211.6-181.3l160.5 42.1-41.6-97.5z" fill="url(#SVGID_15_)"/><path d="m29.3 264l78.7-179.2 48.9 114.2z" fill="url(#SVGID_16_)"/><path d="m29.3 264l80.2 88.3 47.4-153.3z" fill="url(#SVGID_17_)"/><path d="m211.6-181.3l118.9-55.4-353.2 12.6z" fill="url(#SVGID_18_)"/><path d="m-9-73.5l10.7 162.5-57.7 176.9z" fill="url(#SVGID_19_)"/><path d="m1.7 89l27.6 175-85.3 1.9z" fill="url(#SVGID_20_)"/><path d="m-42.2 386.7l71.5-122.7-85.3 1.9z" fill="url(#SVGID_21_)"/><path d="m387-88l80.3-113.2 118.1 126.6z" fill="url(#SVGID_22_)"/><path d="m319.4 394.7l45.8 66.5-64.6-7.2z" fill="url(#SVGID_23_)"/><path d="m109.5 352.3l209.9 42.4-18.8 59.3z" fill="url(#SVGID_24_)"/><path d="m388.9 439.1l109.4-130.4 118.8 167.8z" fill="url(#SVGID_25_)"/><path d="m585.4-74.6l28.3 123.8 63.1-99.8z" fill="url(#SVGID_26_)"/><path d="m665.2-250.4l-334.7 13.7 136.8 35.5 214.9-49.2z" fill="url(#SVGID_27_)"/><path d="m682.2-250.4l-214.9 49.2 118.1 126.6 100-175.8z" fill="url(#SVGID_28_)"/><path d="m685.4-250.4l-100 175.8 91.4 24 9.1-199.8z" fill="url(#SVGID_29_)"/><path d="m685.9-250.4l-9.1 199.8 9 551h .1z" fill="url(#SVGID_30_)"/><path d="m-70.9 500.4l28.7-113.7-13.8-120.8-15.2 234.5z" fill="url(#SVGID_31_)"/><path d="m-60.5 500.4l361.1-46.4-191.1-101.7-179.1 148.1z" fill="url(#SVGID_32_)"/><path d="m-69.6 500.4l179.1-148.1-151.7 34.4-28.7 113.7z" fill="url(#SVGID_33_)"/><path d="m374.9 500.4l14-61.3-23.7 22.1 8.1 39.2z" fill="url(#SVGID_34_)"/><path d="m406.5 500.4l210.6-23.9-228.2-37.4-14 61.3z" fill="url(#SVGID_35_)"/><path d="m674.3 500.4l-57.2-23.9-210.6 23.9z" fill="url(#SVGID_36_)"/><path d="m368.6 500.4l-68-46.4-361.1 46.4z" fill="url(#SVGID_37_)"/><path d="m373.3 500.4l-8.1-39.2-64.6-7.2 68 46.4z" fill="url(#SVGID_38_)"/><path d="m2.8-250.4l327.7 13.7 334.7-13.7z" fill="url(#SVGID_39_)"/><path d="m-67.1-250.4l44.4 26.3 353.2-12.6-327.7-13.7z" fill="url(#SVGID_40_)"/><path d="m-67.1-250.4h-4.2l62.3 176.9-13.7-150.6z" fill="url(#SVGID_41_)"/><path d="m-72.4-250.4l1.1 750.8h.1l15.2-234.5-16.3-516.3z" fill="url(#SVGID_42_)"/><path d="m-72.3-250.4l16.3 516.3 47-339.4-62.3-176.9z" fill="url(#SVGID_43_)"/><path d="m-22.7-224.1l13.7 150.6 84.5-97.5z" fill="url(#SVGID_44_)"/><path d="m-22.7-224.1l234.3 42.8-136.1 10.3z" fill="url(#SVGID_45_)"/><path d="m-9-73.5l243.5 60-159-157.5z" fill="url(#SVGID_46_)"/><path d="m211.6-181.3l22.9 167.8-159-157.5z" fill="url(#SVGID_47_)"/><path d="m498.3 308.7l39.7-186.9 74.5 184.6z" fill="url(#SVGID_48_)"/><path d="m498.3 308.7l118.8 167.8-4.6-170.1z" fill="url(#SVGID_49_)"/><path d="m538 121.8l75.7-72.6-1.2 257.2z" fill="url(#SVGID_50_)"/><path d="m613.7 49.2l63.1-99.8-64.3 357z" fill="url(#SVGID_51_)"/><path d="m674.3 500.4h9.8l-71.6-194 4.6 170.1z" fill="url(#SVGID_52_)"/><path d="m685.8 500.4l-9-551-64.3 357 71.6 194z" fill="url(#SVGID_53_)"/><path d="m109.5 352.3l209.9 42.4-35.2-196z" fill="url(#SVGID_54_)"/><path d="m109.5 352.3l47.4-153.3 127.3-.3z" fill="url(#SVGID_55_)"/><path d="m234.5-13.5l22.9 87.2 67.3-37.1z" fill="url(#SVGID_56_)"/><path d="m257.4 73.7l26.8 125 40.5-162.1z" fill="url(#SVGID_57_)"/><path d="m319.4 394.7l178.9-86-72.7-90.5z" fill="url(#SVGID_58_)"/><path d="m324.7 36.6l167.4 64.6-66.5 117z" fill="url(#SVGID_59_)"/><path d="m492.1 101.2l45.9 20.6-112.4 96.4z" fill="url(#SVGID_60_)"/><path d="m498.3 308.7l39.7-186.9-112.4 96.4z" fill="url(#SVGID_61_)"/><path d="m284.2 198.7l35.2 196 106.2-176.5z" fill="url(#SVGID_62_)"/><path d="m284.2 198.7l40.5-162.1 100.9 181.6z" fill="url(#SVGID_63_)"/><path d="m108 84.8l48.9 114.2 3.5-87.5z" fill="url(#SVGID_64_)"/><path d="m108 84.8l126.5-98.3-74.1 125z" fill="url(#SVGID_65_)"/><path d="m156.9 199l127.3-.3-123.8-87.2z" fill="url(#SVGID_66_)"/><path d="m234.5-13.5l22.9 87.2-97 37.8z" fill="url(#SVGID_67_)"/><path d="m257.4 73.7l26.8 125-123.8-87.2z" fill="url(#SVGID_68_)"/><path d="m324.7 36.6l167.4 64.6-119.2-108.2z" fill="url(#SVGID_69_)"/><path d="m234.5-13.5l90.2 50.1 48.2-43.6z" fill="url(#SVGID_70_)"/><path d="m234.5-13.5l152.5-74.5-14.1 81z" fill="url(#SVGID_71_)"/><path d="m372.9-7l14.1-81 106.3 124.6z" fill="url(#SVGID_72_)"/><path d="m372.9-7l119.2 108.2 1.2-64.6z" fill="url(#SVGID_73_)"/><path d="m387-88l198.4 13.4-92.1 111.2z" fill="url(#SVGID_74_)"/><path d="m492.1 101.2l45.9 20.6-44.7-85.2z" fill="url(#SVGID_75_)"/><path d="m538 121.8l75.7-72.6-120.4-12.6z" fill="url(#SVGID_76_)"/><path d="m585.4-74.6l28.3 123.8-120.4-12.6z" fill="url(#SVGID_77_)"/></g><g style="opacity:.2;clip-path:url(#SVGID_4_);fill:none;stroke:#fff;stroke-width:1.3958;stroke-miterlimit:10"><path d="m108 84.8l126.5-98.3-243.5-60z"/><path d="m-42.2 386.7l71.5-122.7 80.2 88.3z"/><path d="m-9-73.5l117 158.3-106.3 4.2z"/><path d="m29.3 264l78.7-179.2-106.3 4.2z"/><path d="m211.6-181.3l22.9 167.8 137.6-125.7z"/><path d="m372.1-139.2l95.2-62-80.3 113.2z"/><path d="m234.5-13.5l137.6-125.7 14.9 51.2z"/><path d="m319.4 394.7l45.8 66.5 23.7-22.1z"/><path d="m319.4 394.7l178.9-86-109.4 130.4z"/><path d="m372.1-139.2l95.2-62-136.8-35.5z"/><path d="m211.6-181.3l160.5 42.1-41.6-97.5z"/><path d="m29.3 264l78.7-179.2 48.9 114.2z"/><path d="m29.3 264l80.2 88.3 47.4-153.3z"/><path d="m211.6-181.3l118.9-55.4-353.2 12.6z"/><path d="m-9-73.5l10.7 162.5-57.7 176.9z"/><path d="m1.7 89l27.6 175-85.3 1.9z"/><path d="m-42.2 386.7l71.5-122.7-85.3 1.9z"/><path d="m387-88l80.3-113.2 118.1 126.6z"/><path d="m319.4 394.7l45.8 66.5-64.6-7.2z"/><path d="m109.5 352.3l209.9 42.4-18.8 59.3z"/><path d="m388.9 439.1l109.4-130.4 118.8 167.8z"/><path d="m585.4-74.6l28.3 123.8 63.1-99.8z"/><path d="m665.2-250.4l-334.7 13.7 136.8 35.5 214.9-49.2z"/><path d="m682.2-250.4l-214.9 49.2 118.1 126.6 100-175.8z"/><path d="m685.4-250.4l-100 175.8 91.4 24 9.1-199.8z"/><path d="m685.9-250.4l-9.1 199.8 9 551h .1z"/><path d="m-70.9 500.4l28.7-113.7-13.8-120.8-15.2 234.5z"/><path d="m-60.5 500.4l361.1-46.4-191.1-101.7-179.1 148.1z"/><path d="m-69.6 500.4l179.1-148.1-151.7 34.4-28.7 113.7z"/><path d="m374.9 500.4l14-61.3-23.7 22.1 8.1 39.2z"/><path d="m406.5 500.4l210.6-23.9-228.2-37.4-14 61.3z"/><path d="m674.3 500.4l-57.2-23.9-210.6 23.9z"/><path d="m368.6 500.4l-68-46.4-361.1 46.4z"/><path d="m373.3 500.4l-8.1-39.2-64.6-7.2 68 46.4z"/><path d="m2.8-250.4l327.7 13.7 334.7-13.7z"/><path d="m-67.1-250.4l44.4 26.3 353.2-12.6-327.7-13.7z"/><path d="m-67.1-250.4h-4.2l62.3 176.9-13.7-150.6z"/><path d="m-72.4-250.4l1.1 750.8h.1l15.2-234.5-16.3-516.3z"/><path d="m-72.3-250.4l16.3 516.3 47-339.4-62.3-176.9z"/><path d="m-22.7-224.1l13.7 150.6 84.5-97.5z"/><path d="m-22.7-224.1l234.3 42.8-136.1 10.3z"/><path d="m-9-73.5l243.5 60-159-157.5z"/><path d="m211.6-181.3l22.9 167.8-159-157.5z"/><path d="m498.3 308.7l39.7-186.9 74.5 184.6z"/><path d="m498.3 308.7l118.8 167.8-4.6-170.1z"/><path d="m538 121.8l75.7-72.6-1.2 257.2z"/><path d="m613.7 49.2l63.1-99.8-64.3 357z"/><path d="m674.3 500.4h9.8l-71.6-194 4.6 170.1z"/><path d="m685.8 500.4l-9-551-64.3 357 71.6 194z"/><path d="m109.5 352.3l209.9 42.4-35.2-196z"/><path d="m109.5 352.3l47.4-153.3 127.3-.3z"/><path d="m234.5-13.5l22.9 87.2 67.3-37.1z"/><path d="m257.4 73.7l26.8 125 40.5-162.1z"/><path d="m319.4 394.7l178.9-86-72.7-90.5z"/><path d="m324.7 36.6l167.4 64.6-66.5 117z"/><path d="m492.1 101.2l45.9 20.6-112.4 96.4z"/><path d="m498.3 308.7l39.7-186.9-112.4 96.4z"/><path d="m284.2 198.7l35.2 196 106.2-176.5z"/><path d="m284.2 198.7l40.5-162.1 100.9 181.6z"/><path d="m108 84.8l48.9 114.2 3.5-87.5z"/><path d="m108 84.8l126.5-98.3-74.1 125z"/><path d="m156.9 199l127.3-.3-123.8-87.2z"/><path d="m234.5-13.5l22.9 87.2-97 37.8z"/><path d="m257.4 73.7l26.8 125-123.8-87.2z"/><path d="m324.7 36.6l167.4 64.6-119.2-108.2z"/><path d="m234.5-13.5l90.2 50.1 48.2-43.6z"/><path d="m234.5-13.5l152.5-74.5-14.1 81z"/><path d="m372.9-7l14.1-81 106.3 124.6z"/><path d="m372.9-7l119.2 108.2 1.2-64.6z"/><path d="m387-88l198.4 13.4-92.1 111.2z"/><path d="m492.1 101.2l45.9 20.6-44.7-85.2z"/><path d="m538 121.8l75.7-72.6-120.4-12.6z"/><path d="m585.4-74.6l28.3 123.8-120.4-12.6z"/></g><g style="opacity:.2;clip-path:url(#SVGID_4_);fill:none;stroke:#fff;stroke-width:1.3958;stroke-miterlimit:10"><path d="m126.2-252.9l20.2 119.8 215.4-15.6-113.2-104.2z"/><path d="m-71.1 137.6l51.2 17.7-42-151.9-9.2 4.6z"/><path d="m38.6-252.9l-23.9 48.7 131.7 71.1-20.2-119.8z"/><path d="m-61.9 3.4l208.3-136.5-131.7-71.1z"/><path d="m402.9-252.9l-41.1 104.2 246.1-37.3-70.9-66.9z"/><path d="m692.3-185.3l-84.4-.7-14.1 65.6 98.5-37.6z"/><path d="m361.8-148.7l246.1-37.3-14.1 65.6z"/><path d="m208.2 350l13.9 104 42.7-7z"/><path d="m208.2 350l271.3 34.7-214.7 62.3z"/><path d="m692.3-250.8l-2.2-2.1h-76.9l-5.3 66.9 84.4.7z"/><path d="m537-252.9l70.9 66.9 5.3-66.9z"/><path d="m-61.9 3.4l208.3-136.5-12.4 157.4z"/><path d="m-61.9 3.4l42 151.9 153.9-131z"/><path d="m-5.1-252.9l-66 80.9v38.4l85.8-70.6 23.9-48.7z"/><path d="m-71.1-133.6v131.8l9.2 5.2 76.6-207.6z"/><path d="m-71.1-1.8v9.8l9.2-4.6z"/><path d="m692.3-158l-98.5 37.6 98.5 65.8z"/><path d="m208.2 350l13.9 104-73.9-53.7z"/><path d="m-19.9 155.3l228.1 194.7-60 50.3z"/><path d="m497.6 508l-18.1-123.3-214.7 62.3 76.3 61z"/><path d="m-71.1 303.2l219.3 97.1-168.1-245-51.2 5.2z"/><path d="m-71.1 137.6v22.9l51.2-5.2z"/><path d="m209.2 502.8l55.6-55.8-42.7 7-14.8 47.7z"/><path d="m341.1 508l-76.3-61-55.6 55.8 8.7 5.2z"/><path d="m-71.1 338.8l272.7 159.6-53.4-98.1-219.3-97.1z"/><path d="m207.3 501.7l14.8-47.7-73.9-53.7 53.4 98.1z"/><path d="m-71.1-252.9v20.4l11-20.4z"/><path d="m-71.1-172l66-80.9h-55l-11 20.4z"/><path d="m248.6-252.9l113.2 104.2-34.8-104.2z"/><path d="m327-252.9l34.8 104.2 41.1-104.2z"/><path d="m479.5 384.7l165.7-172.4-25.5 251.2z"/><path d="m595.4 508l24.3-44.5-140.2-78.8 18.1 123.3z"/><path d="m692.3 204l-47.1 8.3-25.5 251.2 72.6-122.6z"/><path d="m692.3 340.9l-72.6 122.6 72.6-81.1z"/><path d="m613.7 508l6-44.5-24.3 44.5z"/><path d="m692.3 508v-125.6l-72.6 81.1-6 44.5z"/><path d="m-19.9 155.3l228.1 194.7 80.6-235.6z"/><path d="m-19.9 155.3l153.9-131 154.8 90.1z"/><path d="m361.8-148.7l-27 109.9 105 8z"/><path d="m334.8-38.8l-46 153.2 151-145.2z"/><path d="m208.2 350l271.3 34.7-31.3-148.9z"/><path d="m439.8-30.8l162.7 188.3-154.3 78.3z"/><path d="m602.5 157.5l42.7 54.8-197 23.5z"/><path d="m479.5 384.7l165.7-172.4-197 23.5z"/><path d="m288.8 114.4l-80.6 235.6 240-114.2z"/><path d="m288.8 114.4l151-145.2 8.4 266.6z"/><path d="m146.4-133.1l-12.4 157.4 59.2-91.5z"/><path d="m146.4-133.1l215.4-15.6-168.6 81.5z"/><path d="m134 24.3l154.8 90.1-95.6-181.6z"/><path d="m361.8-148.7l-27 109.9-141.6-28.4z"/><path d="m334.8-38.8l-46 153.2-95.6-181.6z"/><path d="m439.8-30.8l162.7 188.3-76.8-200.9z"/><path d="m361.8-148.7l78 117.9 85.9-12.6z"/><path d="m361.8-148.7l232 28.3-68.1 77z"/><path d="m525.7-43.4l68.1-77 50.7 209.4z"/><path d="m525.7-43.4l76.8 200.9 42-68.5z"/><path d="m692.3-54.6l-98.5-65.8 50.7 209.4 47.8-14.2z"/><path d="m602.5 157.5l42.7 54.8-.7-123.3z"/><path d="m692.3 123.2l-47.8-34.2.7 123.3 47.1-8.3z"/><path d="m692.3 74.8l-47.8 14.2 47.8 34.2z"/></g><g style="opacity:.3;clip-path:url(#SVGID_4_);fill:none;stroke:#fff;stroke-width:1.3958;stroke-miterlimit:10"><path d="m105.4-.1l130.3-9.4-156.1-143.8z"/><path d="m-119.9 131.5l99.2-49 25.4 91.9z"/><path d="m79.6-153.3l25.8 153.2-79.7-43z"/><path d="m-20.7 82.5l126.1-82.6-79.7-43z"/><path d="m282.6-128.4l-46.9 118.9 148.9-22.6z"/><path d="m384.6-32.1l93.5.7-102 39z"/><path d="m235.7-9.5l148.9-22.6-8.5 39.7z"/><path d="m142.8 292.2l8.4 63 25.8-4.3z"/><path d="m142.8 292.2l164.1 21.1-129.9 37.6z"/><path d="m384.6-32.1l93.5.7-87-81.9z"/><path d="m282.6-128.4l102 96.3 6.5-81.2z"/><path d="m-20.7 82.5l126.1-82.6-7.6 95.3z"/><path d="m-20.7 82.5l25.4 91.9 93.1-79.2z"/><path d="m282.6-128.4l108.5 15.1-264.3-143.7z"/><path d="m79.6-153.3l-53.9 110.2-109.7 90.2z"/><path d="m25.7-43.1l-46.4 125.6-63.3-35.4z"/><path d="m-119.9 131.5l99.2-49-63.3-35.4z"/><path d="m376.1 7.6l102-39 38.6 133z"/><path d="m142.8 292.2l8.4 63-44.7-32.5z"/><path d="m4.7 174.4l138.1 117.8-36.3 30.5z"/><path d="m177 350.9l129.9-37.6 23.5 160.1z"/><path d="m516.7 101.6l-26.3 92.7 84.3-37.7z"/><path d="m642.2 21.7l-251.1-135 87 81.9 176.6 60.5z"/><path d="m654.7 29.1l-176.6-60.5 38.6 133 140.4-71.1z"/><path d="m657.1 30.5l-140.4 71.1 58 55 82.7-126z"/><path d="m657.4 30.6l-82.7 126-202.9 361.9h.1l285.5-487.8z"/><path d="m-184.2 193l64.3-61.5 35.9-84.4-100.4 145.8z"/><path d="m-176.5 197.5l283 125.2-101.8-148.3-187.9 19.2z"/><path d="m-183.2 193.6l187.9-19.2-124.6-42.9-64.3 61.5z"/><path d="m143.4 384.7l33.6-33.8-25.8 4.3-9 28.8z"/><path d="m166.6 398.3l163.8 75.1-153.4-122.5-33.6 33.8z"/><path d="m363.4 513.5l-33-40.1-163.8-75.1z"/><path d="m138.8 382l-32.3-59.3-283-125.2z"/><path d="m142.2 384l9-28.8-44.7-32.5 32.3 59.3z"/><path d="m155.5-263.1l235.6 149.8 251.1 135z"/><path d="m104.2-293.2l22.6 36.2 264.3 143.7-235.6-149.8z"/><path d="m104.2-293.2l-3.1-1.8-21.5 141.7 47.2-103.7z"/><path d="m100.3-295.5l-284.7 488.3v.1l100.4-145.8 184.3-342.5z"/><path d="m100.3-295.4l-184.3 342.5 163.6-200.4 21.5-141.7z"/><path d="m126.8-257l-47.2 103.7 99.1-27z"/><path d="m126.8-257l155.8 128.6-103.9-51.9z"/><path d="m79.6-153.3l156.1 143.8-57-170.8z"/><path d="m282.6-128.4l-46.9 118.9-57-170.8z"/><path d="m306.9 313.3l100.3-104.4-15.5 152z"/><path d="m306.9 313.3l23.5 160.1 61.3-112.5z"/><path d="m407.2 208.9l83.2-14.6-98.7 166.6z"/><path d="m490.4 194.3l84.3-37.7-183 204.3z"/><path d="m363.4 513.5l7.2 4.2 21.1-156.8-61.3 112.5z"/><path d="m371.8 518.5l202.9-361.9-183 204.3-21.1 156.8z"/><path d="m4.7 174.4l138.1 117.8 48.7-142.5z"/><path d="m4.7 174.4l93.1-79.2 93.7 54.5z"/><path d="m235.7-9.5l-16.3 66.4 63.5 4.9z"/><path d="m219.4 56.9l-27.9 92.8 91.4-87.9z"/><path d="m142.8 292.2l164.1 21.1-18.9-90.1z"/><path d="m282.9 61.8l98.4 114-93.3 47.4z"/><path d="m381.3 175.8l25.9 33.1-119.2 14.3z"/><path d="m306.9 313.3l100.3-104.4-119.2 14.3z"/><path d="m191.5 149.7l-48.7 142.5 145.2-69z"/><path d="m191.5 149.7l91.4-87.9 5.1 161.4z"/><path d="m105.4-.1l-7.6 95.3 35.9-55.4z"/><path d="m105.4-.1l130.3-9.4-102 49.3z"/><path d="m97.8 95.2l93.7 54.5-57.8-109.9z"/><path d="m235.7-9.5l-16.3 66.4-85.7-17.1z"/><path d="m219.4 56.9l-27.9 92.8-57.8-109.9z"/><path d="m282.9 61.8l98.4 114-46.4-121.6z"/><path d="m235.7-9.5l47.2 71.3 52-7.6z"/><path d="m235.7-9.5l140.4 17.1-41.2 46.6z"/><path d="m334.9 54.2l41.2-46.6 30.7 126.7z"/><path d="m334.9 54.2l46.4 121.6 25.5-41.5z"/><path d="m376.1 7.6l140.6 94-109.9 32.7z"/><path d="m381.3 175.8l25.9 33.1-.4-74.6z"/><path d="m407.2 208.9l83.2-14.6-83.6-60z"/><path d="m516.7 101.6l-26.3 92.7-83.6-60z"/></g><ellipse clip-path="url(#SVGID_4_)" cx="234.5" cy="-11.4" fill="#fff" opacity=".77" rx="3.2" ry="3.2"/><ellipse clip-path="url(#SVGID_4_)" cx="333.6" cy="54.2" fill="#fff" opacity=".77" rx="3.2" ry="3.2"/><ellipse clip-path="url(#SVGID_4_)" cx="384.6" cy="-31.4" fill="#fff" opacity=".77" rx="3.2" ry="3.2"/><ellipse clip-path="url(#SVGID_4_)" cx="361.8" cy="-148.7" fill="#fff" opacity=".77" rx="3.2" ry="3.2"/><ellipse clip-path="url(#SVGID_4_)" cx="211.6" cy="-181.3" fill="#fff" opacity=".77" rx="3.2" ry="3.2"/><ellipse clip-path="url(#SVGID_4_)" cx="191.8" cy="-67.6" fill="#fff" opacity=".77" rx="3.2" ry="3.2"/><ellipse clip-path="url(#SVGID_4_)" cx="79.6" cy="-153.3" fill="#fff" opacity=".77" rx="3.2" ry="3.2"/><ellipse clip-path="url(#SVGID_4_)" cx="105.4" cy=".2" fill="#fff" opacity=".77" rx="3.2" ry="3.2"/><ellipse clip-path="url(#SVGID_4_)" cx="-9" cy="-73.5" fill="#fff" opacity=".77" rx="3.2" ry="3.2"/><ellipse clip-path="url(#SVGID_4_)" cx="-19.9" cy="82.5" fill="#fff" opacity=".77" rx="3.2" ry="3.2"/><ellipse clip-path="url(#SVGID_4_)" cx="97.8" cy="94.7" fill="#fff" opacity=".77" rx="3.2" ry="3.2"/><ellipse clip-path="url(#SVGID_4_)" cx="191.5" cy="149.7" fill="#fff" opacity=".77" rx="3.2" ry="3.2"/><ellipse clip-path="url(#SVGID_4_)" cx="286.2" cy="224.9" fill="#fff" opacity=".77" rx="3.2" ry="3.2"/><ellipse clip-path="url(#SVGID_4_)" cx="425.9" cy="220.9" fill="#fff" opacity=".77" rx="3.2" ry="3.2"/><ellipse clip-path="url(#SVGID_4_)" cx="391.7" cy="360.9" fill="#fff" opacity=".77" rx="3.2" ry="3.2"/><ellipse clip-path="url(#SVGID_4_)" cx="613.7" cy="474.9" fill="#fff" opacity=".77" rx="3.2" ry="3.2"/><ellipse clip-path="url(#SVGID_4_)" cx="109.5" cy="352.3" fill="#fff" opacity=".77" rx="3.2" ry="3.2"/><ellipse clip-path="url(#SVGID_4_)" cx="142.2" cy="294.6" fill="#fff" opacity=".77" rx="3.2" ry="3.2"/><ellipse clip-path="url(#SVGID_4_)" cx="1.7" cy="174.4" fill="#fff" opacity=".77" rx="3.2" ry="3.2"/><ellipse clip-path="url(#SVGID_4_)" cx="657.4" cy="30.6" fill="#fff" opacity=".77" rx="3.2" ry="3.2"/><ellipse clip-path="url(#SVGID_4_)" cx="525.7" cy="-43.4" fill="#fff" opacity=".77" rx="3.2" ry="3.2"/><ellipse clip-path="url(#SVGID_4_)" cx="602.5" cy="159.7" fill="#fff" opacity=".77" rx="3.2" ry="3.2"/><ellipse clip-path="url(#SVGID_4_)" cx="443.7" cy="82.5" fill="#fff" opacity=".77" rx="3.2" ry="3.2"/><ellipse clip-path="url(#SVGID_4_)" cx="407.2" cy="134.3" fill="#fff" opacity=".77" rx="4.4" ry="4.3"/><ellipse clip-path="url(#SVGID_4_)" cx="155" cy="199.5" fill="#fff" opacity=".77" rx="4.4" ry="4.3"/><ellipse clip-path="url(#SVGID_4_)" cx="496" cy="310.3" fill="#fff" opacity=".77" rx="4.4" ry="4.3"/><ellipse clip-path="url(#SVGID_4_)" cx="25.7" cy="-43.1" fill="#fff" opacity=".77" rx="4.4" ry="4.3"/><ellipse clip-path="url(#SVGID_4_)" cx="29.3" cy="265.9" fill="#fff" opacity=".77" rx="4.4" ry="4.3"/><ellipse clip-path="url(#SVGID_4_)" cx="609.3" cy="51" fill="#fff" opacity=".77" rx="4.4" ry="4.3"/><ellipse clip-path="url(#SVGID_4_)" cx="286.1" cy="114.4" fill="#fff" opacity=".77" rx="4.4" ry="4.3"/><ellipse clip-path="url(#SVGID_4_)" cx="593.8" cy="-120.4" fill="#fff" opacity=".77" rx="4.4" ry="4.3"/><ellipse clip-path="url(#SVGID_4_)" cx="612.5" cy="306.4" fill="#fff" opacity=".77" rx="3.2" ry="3.2"/></g><path d="m64.8 167.7l4 16.5.3 1.7.3-1.7 4.2-16.9h4.4l-6.5 22.9h-4.4l-4.5-16.9-.3-1.3-.3 1.3-4.5 16.9h-4.5l-6.5-22.9h4.4l4.2 16.9.3 1.7.3-1.7 4.1-16.5z" fill="#fff"/><path d="m83 185.3l-1.7 5h-4.4l8.3-22.9h4.4l8.3 22.9h-4.7l-5.7-17.1-.3-1.2-.3 1.3-2.7 8.2-.3.6.5-.1h2.4c.5 0 .8.1 1.2.3.3.2.6.5.9.8.3.3.5.7.6 1 .2.4.3.8.4 1.1h-6.9z" fill="#fff"/><path d="m107.4 179.6v10.7h-4.4v-10.1l-7.9-12.8h4.9zm2.8-12.2h4.9l-6.7 11c-.2-.3-.4-.6-.7-1-.2-.4-.4-.9-.6-1.4-.1-.5-.2-1-.3-1.6 0-.6.1-1.1.4-1.6z" fill="#fff"/><path d="m130.3 173.9c0 1-.3 2.1-.8 3.2-.6 1.1-1.3 2.2-2.1 3.3s-1.7 2.2-2.6 3.2c-.9 1-1.7 2-2.4 2.8l-.5.6.7-.1h8.2v3.5h-14.5v-1.9c.3-.7.8-1.5 1.3-2.2.6-.8 1.3-1.6 1.9-2.4.7-.8 1.5-1.7 2.2-2.6.8-.8 1.4-1.7 2-2.6s1.1-1.6 1.5-2.4c.4-.8.6-1.5.6-2.2 0-1-.3-1.8-1-2.3-.7-.6-1.5-.8-2.6-.8-.5 0-1 .1-1.7.2s-1.4.4-2.2.8l-1.1-2.9c1-.5 2-.8 2.9-1 .9-.2 1.7-.3 2.4-.3 1.3 0 2.3.1 3.3.4 1 .3 1.8.7 2.5 1.2.7.6 1.3 1.2 1.6 1.9.2.8.4 1.6.4 2.6z" fill="#fff"/><path d="m144.5 190.7c-1.9 0-3.7-.3-5.2-.9-1.5-.6-2.8-1.5-3.8-2.5-1-1-1.8-2.4-2.4-3.8-.6-1.5-.8-3-.8-4.7s.3-3.2.8-4.7c.6-1.5 1.4-2.7 2.4-3.8s2.4-1.9 3.8-2.6c1.5-.6 3.2-.9 5.1-.9.9 0 1.8.1 2.7.3.9.1 1.9.4 2.8.8l-1.1 2.9c-.9-.3-1.7-.5-2.4-.6-.6-.1-1.3-.1-2.1-.1-1.3 0-2.4.3-3.3.8-.9.5-1.7 1.1-2.3 1.9-.6.8-1 1.7-1.4 2.8-.3 1-.5 2.1-.5 3.2 0 1.1.1 2.2.5 3.2.3 1 .8 1.9 1.4 2.8.6.8 1.4 1.5 2.3 1.9.9.5 2 .7 3.3.7 1.4 0 2.8-.3 4.4-1l1.2 2.8c-1 .5-1.9.8-2.8 1.1-.8.3-1.7.4-2.6.4z" fill="#fff"/><path d="m160.9 190.7c-1.4 0-2.7-.2-3.8-.6-1.1-.4-2.1-1-2.9-1.7-.8-.8-1.4-1.7-1.8-2.9s-.6-2.5-.6-4v-14.2h4.4v14.7c0 .8.1 1.6.3 2.3.2.7.6 1.3 1 1.7.4.5.9.8 1.5 1.1.6.3 1.2.3 1.9.3.7 0 1.3-.1 1.9-.3.6-.3 1.1-.6 1.5-1.1.4-.5.8-1 1-1.7.2-.7.3-1.5.3-2.3v-14.7h4.4v14.2c0 1.4-.2 2.6-.6 3.8-.4 1.1-1 2.1-1.8 2.9-.8.8-1.7 1.5-2.9 1.9-1.1.4-2.4.6-3.8.6z" fill="#fff"/><path d="m107.8 151.9c24.6 0 53.3-11 56.3-39.3.6-6.3-3.8-32-22.6-53.3l-16.9 21.7h-33.7l-16.7-21.7c-18.8 21.3-23.3 47.1-22.6 53.3 2.8 28.3 31.6 39.3 56.2 39.3" fill="#fff"/><path d="m109.8 133.4l4.4-6.3c.8-1.2.4-2.8-.8-3.5-1.7-.9-3.5-1.4-5.6-1.4-2 0-3.9.5-5.6 1.4-1.3.7-1.7 2.4-.8 3.5l4.4 6.3c.9 1.4 3.1 1.4 4 0z"/><path d="m118.2 141.4c-4.5 0-8.5-2.6-10.4-6.5-1.9 3.9-5.9 6.5-10.4 6.5-2.8 0-5.4-1-7.6-2.8-.4-.3-.5-1-.1-1.4.3-.4 1-.5 1.4-.1 1.7 1.5 4 2.3 6.3 2.3 4.7 0 8.6-3.3 9.4-7.9.1-.5.5-.8 1-.8.5 0 .9.3 1 .8.8 4.6 4.8 7.9 9.4 7.9 2.4 0 4.6-.8 6.3-2.2.4-.3 1-.3 1.4.1.3.4.3 1-.1 1.4-2.1 1.8-4.8 2.7-7.6 2.7z"/><path d="m163 102.5c-1.3.3-2.7.7-4.2 1-13.6 3.1-31.7 4.9-51 4.9s-37.4-1.7-51-4.9c-1.5-.3-2.9-.7-4.2-1-.2 1-.4 2-.6 3 2.8.8 5.8 1.4 8.9 2 .6 8.2 8.6 14.8 18.5 14.9 8.5.1 15.8-4.7 18.1-11.2 3.5.1 6.9.1 10.3.1 2.8 0 5.7-.1 8.5-.1 2.4 6.5 9.6 11.3 18.1 11.1 9.7-.1 17.6-6.5 18.4-14.6 3.9-.7 7.5-1.5 10.8-2.4-.1-.8-.3-1.7-.6-2.8z"/></svg>