<svg id="Layer_1" enable-background="new 0 0 205.007 99.02" height="99.02" viewBox="0 0 205.007 99.02" width="205.007" xmlns="http://www.w3.org/2000/svg"><path d="m49 82.014c0 .684-.155 1.006-.838 1.006h-42.08c-.684 0-1.082-.322-1.082-1.006v-66.832c0-.684.398-1.161 1.082-1.161h42.08c.684 0 .838.478.838 1.161v15.08l5-4.056v-18.78c0-4.101-2.975-7.405-7.076-7.405h-39.605c-4.101-.001-7.319 3.304-7.319 7.405v84.16c0 4.101 3.218 7.435 7.319 7.435h39.605c4.101 0 7.076-3.334 7.076-7.435v-43.23l-5 5.714zm-37.72-77.994h31.684c1.367 0 2.475 1.133 2.475 2.5 0 1.367-1.108 2.5-2.475 2.5h-31.684c-1.367 0-2.475-1.133-2.475-2.5 0-1.367 1.108-2.5 2.475-2.5zm25.72 86.535c0 1.914-1.552 3.465-3.465 3.465h-13.07c-1.914 0-3.465-1.552-3.465-3.465v-.069c0-1.914 1.552-3.465 3.465-3.465h13.069c1.914 0 3.465 1.552 3.465 3.465v.069z" fill="#7f8c8d"/><path d="m65.291 29.678l-4.136-3.928-32.05 26.26-10.132-13.027-8.271 8.478 18.403 23.985z" fill="#7f8c8d"/><path d="m81.623 52.299l-4.857-32.52-.282-2.182h-.422v34.702h-7.039v-51.736h9.291l4.505 23.651.352 2.745h.141l.352-2.745 4.505-23.651h9.291v51.736h-7.039v-34.701h-.422l-.282 2.182-4.857 32.52h-3.237z" fill="#7f8c8d"/><path d="m122.869 41.67c-.07 2.112-.493 4.012-1.267 5.631-.634 1.408-1.619 2.745-3.027 3.801-1.408 1.126-3.308 1.76-5.842 1.76-2.534 0-4.505-.634-5.913-1.76-1.408-1.056-2.323-2.393-2.956-3.801-.774-1.619-1.197-3.519-1.267-5.631v-30.478c.07-2.041.493-3.942 1.267-5.561.634-1.408 1.549-2.815 2.956-3.871 1.408-1.056 3.379-1.76 5.913-1.76 2.534 0 4.435.704 5.842 1.76 1.408 1.056 2.393 2.464 3.027 3.871.774 1.619 1.197 3.52 1.267 5.561zm-7.602-30.478c0-1.408-.282-2.393-.985-3.238-.352-.352-.915-.563-1.549-.563-1.337 0-1.971.986-2.252 1.901-.211.563-.282 1.197-.282 1.901v30.477c0 1.478.352 2.464 1.056 3.238.352.352.845.563 1.478.563 1.337 0 1.971-.845 2.252-1.901.211-.493.282-1.126.282-1.901z" fill="#7f8c8d"/><path d="m128.005 52.299v-51.736h6.687c4.505 0 8.024.845 10.347 3.027 2.323 2.182 3.519 5.561 3.519 10.699 0 2.464-.211 4.293-.985 5.983-.774 1.689-1.971 3.097-3.731 4.716 1.901 1.056 3.308 3.027 4.435 6.335.563 1.619.845 3.731.845 6.335 0 3.871-.704 7.32-2.463 9.995-1.76 2.675-4.786 4.434-9.291 4.646zm7.602-30.408c.634 0 2.112.07 3.379-.775 1.267-.845 2.252-2.534 2.252-6.124 0-3.59-.985-5.279-2.252-6.124-1.267-.845-2.745-.774-3.379-.774zm0 22.877c.634 0 2.112.141 3.379-.774 1.267-.915 2.252-2.957 2.252-7.18 0-4.224-.985-6.265-2.252-7.18-1.267-.915-2.745-.775-3.379-.775z" fill="#7f8c8d"/><path d="m153.626.563h7.602v51.736h-7.602z" fill="#7f8c8d"/><path d="m166.857.563h7.602v44.697h10.066v7.039h-17.668z" fill="#7f8c8d"/><path d="m187.621.563h17.386v7.814h-9.784v13.585h7.039v8.306h-7.039v14.219h9.784v7.813h-17.386z" fill="#7f8c8d"/><path d="m83.037 64.986h-8.125v10.524h5.453v6.052h-5.453v17.449h-5.889v-40.077h14.013v6.052z" fill="#7f8c8d"/><path d="m95.959 99.011l-3.053-16.903h-1.581v16.903h-5.889v-40.077h5.889c7.034 0 10.033 3.98 10.033 11.56 0 3.98-1.036 7.579-3.272 9.106l3.762 19.412h-5.889zm-4.635-22.356c.818 0 1.909-.109 2.781-.873.872-.763 1.581-2.235 1.581-5.071s-.709-4.362-1.581-5.125c-.873-.764-1.963-.818-2.781-.818z" fill="#7f8c8d"/><path d="m105.118 58.934h5.889v40.078h-5.889z" fill="#7f8c8d"/><path d="m115.368 58.934h13.468v6.053h-7.579v10.523h5.453v6.434h-5.453v11.014h7.579v6.052h-13.468z" fill="#7f8c8d"/><path d="m138.323 78.127l-.491-1.854h-.327v22.738h-5.398v-40.077h5.235l5.725 20.884.491 1.854h.327v-22.738h5.398v40.078h-5.235z" fill="#7f8c8d"/><path d="m153.644 99.011v-40.077h4.635c5.453 0 8.397 1.091 9.978 4.144 1.527 3.053 1.745 8.07 1.745 15.922s-.218 12.814-1.745 15.867c-1.581 3.053-4.526 4.144-9.978 4.144zm5.888-5.889c2.017 0 3.163-.218 3.762-2.181.273-.927.491-2.345.545-4.253.054-1.909.054-4.471.054-7.743 0-3.272 0-5.835-.054-7.743-.055-1.854-.273-3.272-.545-4.253-.6-1.908-1.745-2.126-3.762-2.126z" fill="#7f8c8d"/><path d="m173.926 58.934h5.889v34.625h7.798v5.453h-13.687z" fill="#7f8c8d"/><path d="m195.846 71.748l.164.382h.109l.163-.382 2.945-12.814h5.78l-5.998 23.011v17.067h-5.889v-17.068l-5.998-23.011h5.78z" fill="#7f8c8d"/></svg>