<svg display="none" version="1.1" xmlns="http://www.w3.org/2000/svg" xmlns:xlink="http://www.w3.org/1999/xlink">
<defs>
<symbol id="magnify" viewBox="0 0 1024 1024">
	<path class="path1" d="M726.944 124.505c-166.038-166.011-436.169-166.011-602.249 0.041-166.229 166.011-166.257 436.347-0.123 602.426 166.147 166.011 436.333 166.011 602.371-0.014 166.038-166.065 166.038-436.415 0-602.453zM202.875 648.779c-122.948-122.948-122.907-323.092 0.014-445.904 122.935-122.935 322.956-122.935 445.85-0.068 122.866 122.88 122.825 322.819 0 445.945-122.907 122.552-322.901 122.989-445.863 0.027zM996.98 866.222l-182.791-182.368c-0.928-0.915-2.007-1.597-2.963-2.266-16.398 25.259-36.031 49.261-58.204 71.421-22.159 22.159-46.203 41.807-71.721 58.259 0.915 0.942 1.597 2.034 2.526 2.935l182.395 182.764c36.113 36.045 94.74 36.004 130.717 0 36.045-36.004 36.045-94.659 0.041-130.744z" />
</symbol>
<symbol id="screen" viewBox="0 0 1080 1024">
	<path class="path1" d="M679.281 995.519c-18.719-13.79-20.698-34.461-20.698-34.461l-7.004-44.919h-223.628l-7.031 44.892c0 0-1.952 20.712-20.657 34.488-18.691 13.776-33.451 25.6-18.691 27.607 14.213 1.925 148.33 0.164 158.215 0 9.912 0.164 143.988 1.925 158.201 0 14.718-2.007-0.041-13.804-18.705-27.607zM374.511 561.78c-19.47 60.061-26.911 74.479-86.644 74.943-59.747 0.464 83.831 32.918 184.061-8.615 100.243-41.506-61.495-161.109-97.417-66.328zM485.554 527.633c28.986 23.388 21.996 25.081 52.251-12.52l360.311-392.574c30.242-37.615 31.293-87.054 2.307-110.428-29-23.388-77.005-11.865-107.261 25.723l-306.49 436.019c-30.269 37.588-30.106 30.406-1.12 53.78zM868.598 17.217c-41.738 24.672-46.967 47.077-46.967 47.077s-4.492-5.229-19.415-17.176c22.378-36.605 66.383-29.901 66.383-29.901zM1036.343 159.444h-134.786l-59.515 64.853h172.728v518.868h-949.985v-518.868h552.619l45.616-64.853h-619.834c-23.852 0-43.185 19.36-43.185 43.24v626.961c0 23.88 19.333 43.24 43.185 43.24h993.157c23.852 0 43.185-19.36 43.185-43.24v-626.961c0-23.88-19.347-43.24-43.185-43.24z" />
</symbol>
<symbol id="speaker" viewBox="0 0 1170 1024">
	<path class="path1" d="M1170.295 417.437c0-229.635-67.188-415.935-150.269-417.396 0.328-0.014 0.655-0.041 0.997-0.041h-94.795c0 0-222.631 167.24-543.116 232.858-9.776 51.76-16.029 113.459-16.029 184.579s6.253 132.806 16.029 184.566c320.485 65.618 543.116 232.871 543.116 232.871h94.795c-0.341 0-0.655-0.027-0.997-0.041 83.081-1.475 150.269-187.761 150.269-417.396zM988.378 771.714c-10.718 0-22.323-11.127-28.276-17.777-14.432-16.070-28.331-41.097-40.209-72.376-26.583-69.973-41.219-163.785-41.219-264.137s14.636-194.164 41.219-264.137c11.878-31.28 25.777-56.306 40.209-72.376 5.967-6.636 17.558-17.777 28.276-17.777s22.323 11.141 28.276 17.777c14.432 16.070 28.331 41.097 40.209 72.376 26.583 69.973 41.219 163.785 41.219 264.137s-14.636 194.164-41.219 264.137c-11.878 31.28-25.791 56.306-40.209 72.376-5.953 6.649-17.558 17.777-28.276 17.777zM287.785 417.437c0-59.378 4.355-117.064 12.629-170.394-54.135 7.496-101.649 11.796-160.386 11.796-76.636 0-76.636 0-76.636 0l-63.392 108.216v100.762l63.379 108.216c0 0 0 0 76.636 0 58.737 0 106.25 4.314 160.386 11.796-8.26-53.33-12.616-111.015-12.616-170.394zM420.741 660.767l-146.282-28.017 93.539 367.479c4.847 19.005 23.702 28.617 41.929 21.313l135.496-54.231c18.227-7.291 25.518-27.389 16.22-44.674l-140.902-261.871zM988.378 553.984c-4.137 0-8.602-4.287-10.909-6.854-5.571-6.199-10.923-15.838-15.497-27.894-10.24-26.965-15.892-63.119-15.892-101.799s5.639-74.834 15.892-101.799c4.574-12.056 9.94-21.695 15.497-27.894 2.307-2.553 6.772-6.854 10.909-6.854s8.602 4.287 10.895 6.854c5.571 6.199 10.923 15.838 15.497 27.894 10.24 26.965 15.892 63.119 15.892 101.799s-5.639 74.834-15.892 101.799c-4.574 12.056-9.94 21.695-15.497 27.894-2.294 2.553-6.772 6.854-10.895 6.854z" />
</symbol>
<symbol id="icon-linkdin" viewBox="0 0 1024 1024">
	<title>linkdin</title>
	<path class="path1" d="M512 20.48c-271.462 0-491.52 220.058-491.52 491.52s220.058 491.52 491.52 491.52 491.52-220.058 491.52-491.52-220.058-491.52-491.52-491.52zM391.68 715.725h-99.533v-320.256h99.533v320.256zM341.299 356.147c-31.437 0-51.763-22.323-51.763-49.818 0-28.16 20.941-49.766 53.043-49.766s51.763 21.606 52.378 49.766c0.051 27.546-20.275 49.818-53.658 49.818zM755.149 715.725h-99.482v-177.51c0-41.267-14.438-69.376-50.432-69.376-27.494 0-43.827 18.995-51.098 37.325-2.611 6.502-3.277 15.718-3.277 24.832v184.678h-99.584v-218.112c0-39.936-1.28-73.37-2.611-102.144h86.426l4.608 44.493h1.946c13.107-20.941 45.21-51.712 98.918-51.712 65.485 0 114.586 43.827 114.586 138.138v189.389z" />
</symbol>
<symbol id="youtube" viewBox="0 0 1024 1024">
	<path class="path1" d="M0 786.286v-548.571q0-68 48.286-116.286t116.286-48.286h548.571q68 0 116.286 48.286t48.286 116.286v548.571q0 68-48.286 116.286t-116.286 48.286h-548.571q-68 0-116.286-48.286t-48.286-116.286zM124.571 668.571q0 100.571 11.429 148.571 5.714 24.571 24.286 41.714t43.143 20q78.286 8.571 235.429 8.571t235.429-8.571q24.571-2.857 43.143-20t24.286-41.714q11.429-48 11.429-148.571 0-101.143-10.857-148.571-5.714-25.143-24.571-42t-43.429-19.714q-77.714-8.571-235.429-8.571-157.143 0-234.857 8.571-25.143 2.857-43.714 19.714t-24.286 42q-11.429 49.714-11.429 148.571zM171.429 562.857v-40h132.571v40h-45.714v241.714h-42.286v-241.714h-44.571zM226.286 127.429l13.714 39.429t13.143 39.429q20 58.857 26.286 90.286v114.857h42.286v-114.857l51.429-169.143h-42.857l-29.143 111.429-30.286-111.429h-44.571zM309.714 760.571v-165.714h37.714v154.286q0 13.714 0.571 14.857 0.571 8.571 8.571 8.571 11.429 0 24-17.714v-160h38.286v209.714h-38.286v-22.857q-22.286 25.714-43.429 25.714-18.857 0-24-16-3.429-9.143-3.429-30.857zM373.714 342.857q0 33.143 12 49.714 15.429 21.714 44.571 21.714 28 0 44.571-21.714 12-15.429 12-49.714v-74.286q0-33.143-12-49.714-16.571-21.714-44.571-21.714-29.143 0-44.571 21.714-12 16.571-12 49.714v74.286zM412 350.286v-89.143q0-29.714 18.286-29.714t18.286 29.714v89.143q0 29.143-18.286 29.143t-18.286-29.143zM451.429 804.571v-281.714h38.286v92q18.286-22.857 38.857-22.857 23.429 0 30.286 24 4 12 4 42.286v83.429q0 29.714-4 41.714-6.857 24-30.286 24-20 0-38.857-23.429v20.571h-38.286zM489.714 763.429q9.143 9.143 18.857 9.143 16.571 0 16.571-28v-89.714q0-28.571-16.571-28.571-9.714 0-18.857 9.143v128zM518.286 367.429q0 21.143 3.429 31.429 6.286 15.429 24.571 15.429 20.571 0 44-25.714v22.857h38.286v-211.429h-38.286v161.714q-12.571 17.714-24 17.714-8.571 0-9.143-9.143-0.571-1.143-0.571-14.857v-155.429h-38.286v167.429zM592.571 736.571v-73.714q0-33.714 11.429-49.143 16.571-21.714 45.714-21.714t44.571 21.714q12 16 12 49.143v43.429h-76v37.143q0 29.143 19.429 29.143 13.714 0 17.143-14.857 0-0.571 0.286-4t0.286-9.429v-12.286h38.857v5.143q0 16.571-1.143 24.571-1.714 12.571-8.571 22.857-15.429 22.857-45.714 22.857-29.714 0-46.286-21.714-12-15.429-12-49.143zM630.286 674.857h37.714v-19.429q0-29.143-18.857-29.143t-18.857 29.143v19.429z" />
</symbol>
<symbol id="facebook" viewBox="0 0 1024 1024">
	<path class="path1" d="M512 0c282.77 0 512 229.23 512 512 0 261.094-195.438 476.53-448 508.026v-380.026h176l16-128h-192v-64c0-35.346 28.654-64 64-64h128v-128h-128c-106.040 0-192 85.96-192 192v64h-96v128h96v380.026c-252.562-31.496-448-246.932-448-508.026 0-282.77 229.23-512 512-512z" />
</symbol>
<symbol id="google" viewBox="0 0 1024 1024">
	<path class="path1" d="M437.006 818.162c0 75.068-46.39 134.392-177.758 139.176-76.984-43.786-141.49-106.952-186.908-182.866 23.69-58.496 97.692-103.046 182.316-102.114 24.022 0.252 46.41 4.114 66.744 10.7 55.908 38.866 101 63.152 112.324 107.448 2.114 8.964 3.282 18.206 3.282 27.656zM512 0c-147.94 0-281.196 62.77-374.666 163.098 36.934-20.452 80.538-32.638 126.902-32.638 67.068 0 256.438 0 256.438 0l-57.304 60.14h-67.31c47.496 27.212 72.752 83.248 72.752 145.012 0 56.692-31.416 102.38-75.78 137.058-43.28 33.802-51.492 47.966-51.492 76.734 0 24.542 51.722 61.098 75.5 78.936 82.818 62.112 99.578 101.184 99.578 178.87 0 78.726-68.936 157.104-185.866 183.742 56.348 21.338 117.426 33.048 181.248 33.048 282.77 0 512-229.23 512-512s-229.23-512-512-512zM768 384v128h-64v-128h-128v-64h128v-128h64v128h128v64h-128zM365.768 339.472c11.922 90.776-27.846 149.19-96.934 147.134-69.126-2.082-134.806-65.492-146.74-156.242-11.928-90.788 34.418-160.254 103.53-158.196 69.090 2.074 128.22 76.542 140.144 167.304zM220.886 642.068c-74.68 0-138.128 25.768-182.842 63.864-24.502-59.82-38.044-125.29-38.044-193.932 0-56.766 9.256-111.368 26.312-162.396 7.374 99.442 77.352 176.192 192.97 176.192 8.514 0 16.764-0.442 24.874-1.022-7.95 15.23-13.622 32.19-13.622 49.982 0 29.97 16.488 47.070 36.868 66.894-15.402 0-30.27 0.418-46.516 0.418z" />
</symbol>
</defs>
</svg>
