<svg style="display:none;" display="none" xmlns="http://www.w3.org/2000/svg"><defs><symbol id="magnify" viewBox="0 0 1024 1024"><path d="m726.944 124.505c-166.038-166.011-436.169-166.011-602.249.041-166.229 166.011-166.257 436.347-.123 602.426 166.147 166.011 436.333 166.011 602.371-.014 166.038-166.065 166.038-436.415 0-602.453zm-524.069 524.274c-122.948-122.948-122.907-323.092.014-445.904 122.935-122.935 322.956-122.935 445.85-.068 122.866 122.88 122.825 322.819 0 445.945-122.907 122.552-322.901 122.989-445.863.027zm794.105 217.443l-182.791-182.368c-.928-.915-2.007-1.597-2.963-2.266-16.398 25.259-36.031 49.261-58.204 71.421-22.159 22.159-46.203 41.807-71.721 58.259.915.942 1.597 2.034 2.526 2.935l182.395 182.764c36.113 36.045 94.74 36.004 130.717 0 36.045-36.004 36.045-94.659.041-130.744z"/></symbol><symbol id="screen" viewBox="0 0 1080 1024"><path d="m679.281 995.519c-18.719-13.79-20.698-34.461-20.698-34.461l-7.004-44.919h-223.628l-7.031 44.892c0 0-1.952 20.712-20.657 34.488-18.691 13.776-33.451 25.6-18.691 27.607 14.213 1.925 148.33.164 158.215 0 9.912.164 143.988 1.925 158.201 0 14.718-2.007-.041-13.804-18.705-27.607zm-304.77-433.739c-19.47 60.061-26.911 74.479-86.644 74.943-59.747.464 83.831 32.918 184.061-8.615 100.243-41.506-61.495-161.109-97.417-66.328zm111.043-34.147c28.986 23.388 21.996 25.081 52.251-12.52l360.311-392.574c30.242-37.615 31.293-87.054 2.307-110.428-29-23.388-77.005-11.865-107.261 25.723l-306.49 436.019c-30.269 37.588-30.106 30.406-1.12 53.78zm383.044-510.416c-41.738 24.672-46.967 47.077-46.967 47.077s-4.492-5.229-19.415-17.176c22.378-36.605 66.383-29.901 66.383-29.901zm167.745 142.227h-134.786l-59.515 64.853h172.728v518.868h-949.985v-518.868h552.619l45.616-64.853h-619.834c-23.852 0-43.185 19.36-43.185 43.24v626.961c0 23.88 19.333 43.24 43.185 43.24h993.157c23.852 0 43.185-19.36 43.185-43.24v-626.961c0-23.88-19.347-43.24-43.185-43.24z"/></symbol><symbol id="speaker" viewBox="0 0 1170 1024"><path d="m1170.295 417.437c0-229.635-67.188-415.935-150.269-417.396.328-.014.655-.041.997-.041h-94.795c0 0-222.631 167.24-543.116 232.858-9.776 51.76-16.029 113.459-16.029 184.579s6.253 132.806 16.029 184.566c320.485 65.618 543.116 232.871 543.116 232.871h94.795c-.341 0-.655-.027-.997-.041 83.081-1.475 150.269-187.761 150.269-417.396zm-181.917 354.277c-10.718 0-22.323-11.127-28.276-17.777-14.432-16.07-28.331-41.097-40.209-72.376-26.583-69.973-41.219-163.785-41.219-264.137s14.636-194.164 41.219-264.137c11.878-31.28 25.777-56.306 40.209-72.376 5.967-6.636 17.558-17.777 28.276-17.777s22.323 11.141 28.276 17.777c14.432 16.07 28.331 41.097 40.209 72.376 26.583 69.973 41.219 163.785 41.219 264.137s-14.636 194.164-41.219 264.137c-11.878 31.28-25.791 56.306-40.209 72.376-5.953 6.649-17.558 17.777-28.276 17.777zm-700.593-354.277c0-59.378 4.355-117.064 12.629-170.394-54.135 7.496-101.649 11.796-160.386 11.796-76.636 0-76.636 0-76.636 0l-63.392 108.216v100.762l63.379 108.216c0 0 0 0 76.636 0 58.737 0 106.25 4.314 160.386 11.796-8.26-53.33-12.616-111.015-12.616-170.394zm132.956 243.33l-146.282-28.017 93.539 367.479c4.847 19.005 23.702 28.617 41.929 21.313l135.496-54.231c18.227-7.291 25.518-27.389 16.22-44.674l-140.902-261.871zm567.637-106.783c-4.137 0-8.602-4.287-10.909-6.854-5.571-6.199-10.923-15.838-15.497-27.894-10.24-26.965-15.892-63.119-15.892-101.799s5.639-74.834 15.892-101.799c4.574-12.056 9.94-21.695 15.497-27.894 2.307-2.553 6.772-6.854 10.909-6.854s8.602 4.287 10.895 6.854c5.571 6.199 10.923 15.838 15.497 27.894 10.24 26.965 15.892 63.119 15.892 101.799s-5.639 74.834-15.892 101.799c-4.574 12.056-9.94 21.695-15.497 27.894-2.294 2.553-6.772 6.854-10.895 6.854z"/></symbol><symbol id="google" viewBox="0 0 32 32"><path d="m12.032 13.28c-.32-2.432-2.08-4.384-3.936-4.416-1.856-.064-3.072 1.792-2.784 4.224.32 2.432 2.08 4.448 3.936 4.48 1.856.064 3.104-1.856 2.784-4.288z"/><path d="m13.76 26.112c0-.256-.032-.512-.096-.736-.288-1.184-1.376-1.76-2.88-2.816-.544-.16-1.152-.288-1.792-.288-2.752-.032-5.216 1.664-5.216 3.744 0 .128 0 .224.032.352 1.184 1.376 2.56 2.56 4.128 3.456.192.032.384.032.576.032 3.904 0 5.248-1.632 5.248-3.744z"/><path d="m16 0c-8.832 0-16 7.168-16 16 0 2.976.832 5.76 2.24 8.16 1.216-1.472 3.424-2.56 6.016-2.56.448 0 .832-.032 1.248-.032-.544-.544-.992-1.184-.992-1.984 0-.48.16-.96.352-1.376-.224 0-.448-.032-.672-.032-3.264 0-5.472-2.432-5.472-5.312 0-2.816 3.04-5.44 6.24-5.44 1.792 0 7.168 0 7.168 0l-1.6 1.504h-2.272c1.504.384 2.304 2.368 2.304 4.16 0 1.504-.832 2.848-2.016 3.776-1.152.896-1.376 1.28-1.376 2.048 0 .672 1.248 1.76 1.888 2.24 1.888 1.344 2.496 2.592 2.496 4.672 0 2.272-1.92 4.544-5.472 5.056 1.824.704 3.808 1.12 5.856 1.12 8.832 0 16-7.168 16-16 .064-8.832-7.104-16-15.936-16zm8.48 13.952v4.48h-2.24v-4.48h-4.48v-2.24h4.48v-4.48h2.24v4.48h4.48v2.24z"/></symbol><symbol id="linkedin" viewBox="0 0 32 32"><path d="m16 32c-8.8 0-16-7.2-16-16s7.2-16 16-16c8.8 0 16 7.2 16 16s-7.2 16-16 16zm0-30.769c-8.123 0-14.769 6.646-14.769 14.769s6.646 14.769 14.769 14.769c8.123 0 14.769-6.646 14.769-14.769s-6.646-14.769-14.769-14.769z"/><path d="m11.938 21.231c0 .123-.062.185-.185.185h-2.831c-.123 0-.185-.062-.185-.185v-9.231c0-.123.062-.185.185-.185h2.831c.123 0 .185.062.185.185z"/><path d="m10.338 10.831c-.862 0-1.6-.738-1.6-1.6s.738-1.6 1.6-1.6c.862 0 1.6.738 1.6 1.6 0 .923-.677 1.6-1.6 1.6z"/><path d="m23.077 14.769v6.523c0 .123-.062.185-.185.185h-2.831c-.123 0-.185-.062-.185-.185v-5.231c0-.985-.062-1.846-1.477-1.846-.985 0-1.477.8-1.538 1.415v5.662c0 .123-.062.185-.185.185h-2.831c-.123 0-.185-.062-.185-.185v-9.231c0-.123.062-.185.185-.185h2.831c.123 0 .185.062.185.185v.862c.492-.554 1.477-1.231 2.831-1.231 2.277 0 3.138 1.662 3.323 2.4.062.062.062 0 .062.677z"/></symbol><symbol id="facebook" viewBox="0 0 32 32"><path d="m16 32c-8.8 0-16-7.2-16-16s7.2-16 16-16c8.8 0 16 7.2 16 16s-7.2 16-16 16zm0-30.769c-8.123 0-14.769 6.646-14.769 14.769s6.646 14.769 14.769 14.769c8.123 0 14.769-6.646 14.769-14.769s-6.646-14.769-14.769-14.769z"/><path d="m20.062 15.754h-2.585v9.292h-3.877v-9.292h-1.846v-3.262h1.846v-2.092c0-1.538.738-3.877 3.877-3.877h2.831v3.2h-2.092c-.308 0-.8.185-.8.862v1.908h2.954l-.308 3.262z"/></symbol></defs></svg>
