<svg display="none" version="1.1" xmlns="http://www.w3.org/2000/svg" xmlns:xlink="http://www.w3.org/1999/xlink">
<defs>
<symbol id="magnify" viewBox="0 0 1024 1024">
	<path class="path1" d="M726.944 124.505c-166.038-166.011-436.169-166.011-602.249 0.041-166.229 166.011-166.257 436.347-0.123 602.426 166.147 166.011 436.333 166.011 602.371-0.014 166.038-166.065 166.038-436.415 0-602.453zM202.875 648.779c-122.948-122.948-122.907-323.092 0.014-445.904 122.935-122.935 322.956-122.935 445.85-0.068 122.866 122.88 122.825 322.819 0 445.945-122.907 122.552-322.901 122.989-445.863 0.027zM996.98 866.222l-182.791-182.368c-0.928-0.915-2.007-1.597-2.963-2.266-16.398 25.259-36.031 49.261-58.204 71.421-22.159 22.159-46.203 41.807-71.721 58.259 0.915 0.942 1.597 2.034 2.526 2.935l182.395 182.764c36.113 36.045 94.74 36.004 130.717 0 36.045-36.004 36.045-94.659 0.041-130.744z" />
</symbol>
<symbol id="screen" viewBox="0 0 1080 1024">
	<path class="path1" d="M679.281 995.519c-18.719-13.79-20.698-34.461-20.698-34.461l-7.004-44.919h-223.628l-7.031 44.892c0 0-1.952 20.712-20.657 34.488-18.691 13.776-33.451 25.6-18.691 27.607 14.213 1.925 148.33 0.164 158.215 0 9.912 0.164 143.988 1.925 158.201 0 14.718-2.007-0.041-13.804-18.705-27.607zM374.511 561.78c-19.47 60.061-26.911 74.479-86.644 74.943-59.747 0.464 83.831 32.918 184.061-8.615 100.243-41.506-61.495-161.109-97.417-66.328zM485.554 527.633c28.986 23.388 21.996 25.081 52.251-12.52l360.311-392.574c30.242-37.615 31.293-87.054 2.307-110.428-29-23.388-77.005-11.865-107.261 25.723l-306.49 436.019c-30.269 37.588-30.106 30.406-1.12 53.78zM868.598 17.217c-41.738 24.672-46.967 47.077-46.967 47.077s-4.492-5.229-19.415-17.176c22.378-36.605 66.383-29.901 66.383-29.901zM1036.343 159.444h-134.786l-59.515 64.853h172.728v518.868h-949.985v-518.868h552.619l45.616-64.853h-619.834c-23.852 0-43.185 19.36-43.185 43.24v626.961c0 23.88 19.333 43.24 43.185 43.24h993.157c23.852 0 43.185-19.36 43.185-43.24v-626.961c0-23.88-19.347-43.24-43.185-43.24z" />
</symbol>
<symbol id="support" viewBox="0 0 32 32">
<path class="path1" d="M7.86 19.556c0.842 2.901 2.62 4.678 4.491 4.678 1.965 0 3.649-1.778 4.491-4.678 0.374 0 1.123 0 1.497-1.216 0.187-0.468 0.936-2.994 0.281-3.93-0.187-0.187-0.374-0.281-0.561-0.281 0.842-6.83-1.965-6.83-5.708-6.83-3.836 0-4.304 1.404-4.304 1.404-2.433 0.842-1.778 4.398-1.497 5.427-0.187 0-0.374 0.094-0.561 0.281-0.655 0.842 0.187 3.462 0.281 3.93 0.561 1.123 1.216 1.216 1.591 1.216zM6.55 14.69c0 0 0.094-0.094 0.094-0.094 0.655 0 0.655 1.123 0.655 1.123 0 0.187 0.187 0.281 0.281 0.281 0.187 0 0.281-0.187 0.281-0.281v0c0-2.713 0.281-4.866 1.123-6.175 0 1.871 5.708 0.936 6.643 1.403 0.468 0.187 0.749 1.216 1.029 2.246 0.187 0.842 0.187 1.684 0.187 2.62v0c0 0.187 0.187 0.281 0.281 0.281 0.187 0 0.281-0.187 0.281-0.281 0 0 0-1.123 0.655-1.123 0.094 0 0.094 0 0.094 0.094 0.281 0.374 0.094 1.871-0.374 3.368-0.094 0.374-0.374 0.842-0.749 0.842-0.094 0-0.187 0-0.187 0-0.094 0-0.187-0.094-0.281 0-0.094 0-0.187 0.094-0.187 0.187-0.749 2.713-2.339 4.491-4.023 4.491s-3.275-1.778-4.023-4.491c0-0.094-0.094-0.187-0.187-0.187 0 0-0.094 0-0.094 0-0.094 0-0.094 0-0.187 0 0 0-0.094 0-0.187 0-0.374 0-0.655-0.468-0.749-0.842-0.468-1.591-0.655-3.088-0.374-3.462z"></path>
<path class="path2" d="M23.485 25.45c-1.029-1.404-4.866-2.526-6.924-3.181-0.374 1.31-1.403 4.678-2.433 6.924-0.281-0.842-0.561-1.497-0.655-1.965 0.468-0.468 0.749-1.216 0.749-1.591s-0.187-0.749-0.561-0.936c-0.374 0.187-0.749 0.281-1.216 0.281-0.374 0-0.749-0.094-1.123-0.187-0.281 0.281-0.561 0.561-0.561 0.936 0 0.468 0.281 1.123 0.749 1.591-0.187 0.374-0.374 1.123-0.655 1.871-1.029-2.246-2.058-5.614-2.433-6.924-2.058 0.655-5.895 1.778-7.018 3.275-0.842 1.123-1.31 2.339-1.31 3.743 0 0.187 0 0.468 0 0.655 1.871 1.31 7.86 2.246 12.351 2.246s10.48-0.936 12.351-2.246c0-0.187 0-0.468 0-0.655 0-1.497-0.468-2.807-1.31-3.836z"></path>
<path class="path3" d="M25.637 0c-3.556 0-6.363 2.901-6.363 6.363v6.363h6.363c3.556 0 6.363-2.901 6.363-6.363s-2.901-6.363-6.363-6.363zM24.982 3.649c0.281-0.281 0.842-0.281 1.123 0 0.187 0.187 0.281 0.374 0.281 0.561s-0.094 0.374-0.281 0.561c-0.187 0.187-0.374 0.281-0.561 0.281s-0.374-0.094-0.561-0.281c-0.187-0.187-0.281-0.374-0.281-0.561s0.094-0.374 0.281-0.561zM26.854 9.825h-2.713v-0.749h0.281c0.187 0 0.281 0 0.281 0s0.094 0 0.094-0.094c0-0.094 0-0.187 0-0.374v-1.216c0-0.187 0-0.281 0-0.374 0 0 0 0-0.094 0 0 0-0.187 0-0.374 0h-0.187v-0.842l2.152-0.468v2.901c0 0.281 0 0.374 0.094 0.374 0 0 0.094 0.094 0.374 0.094h0.187v0.749z"></path>
</symbol>
<symbol id="google" viewBox="0 0 32 32">
<path class="path1" d="M12.032 13.28c-0.32-2.432-2.080-4.384-3.936-4.416-1.856-0.064-3.072 1.792-2.784 4.224 0.32 2.432 2.080 4.448 3.936 4.48 1.856 0.064 3.104-1.856 2.784-4.288z"></path>
<path class="path2" d="M13.76 26.112c0-0.256-0.032-0.512-0.096-0.736-0.288-1.184-1.376-1.76-2.88-2.816-0.544-0.16-1.152-0.288-1.792-0.288-2.752-0.032-5.216 1.664-5.216 3.744 0 0.128 0 0.224 0.032 0.352 1.184 1.376 2.56 2.56 4.128 3.456 0.192 0.032 0.384 0.032 0.576 0.032 3.904 0 5.248-1.632 5.248-3.744z"></path>
<path class="path3" d="M16 0c-8.832 0-16 7.168-16 16 0 2.976 0.832 5.76 2.24 8.16 1.216-1.472 3.424-2.56 6.016-2.56 0.448 0 0.832-0.032 1.248-0.032-0.544-0.544-0.992-1.184-0.992-1.984 0-0.48 0.16-0.96 0.352-1.376-0.224 0-0.448-0.032-0.672-0.032-3.264 0-5.472-2.432-5.472-5.312 0-2.816 3.040-5.44 6.24-5.44 1.792 0 7.168 0 7.168 0l-1.6 1.504h-2.272c1.504 0.384 2.304 2.368 2.304 4.16 0 1.504-0.832 2.848-2.016 3.776-1.152 0.896-1.376 1.28-1.376 2.048 0 0.672 1.248 1.76 1.888 2.24 1.888 1.344 2.496 2.592 2.496 4.672 0 2.272-1.92 4.544-5.472 5.056 1.824 0.704 3.808 1.12 5.856 1.12 8.832 0 16-7.168 16-16 0.064-8.832-7.104-16-15.936-16zM24.48 13.952v4.48h-2.24v-4.48h-4.48v-2.24h4.48v-4.48h2.24v4.48h4.48v2.24h-4.48z"></path>
</symbol>
<symbol id="linkedin" viewBox="0 0 32 32">
<path class="path1" d="M16 32c-8.8 0-16-7.2-16-16s7.2-16 16-16c8.8 0 16 7.2 16 16s-7.2 16-16 16zM16 1.231c-8.123 0-14.769 6.646-14.769 14.769s6.646 14.769 14.769 14.769c8.123 0 14.769-6.646 14.769-14.769s-6.646-14.769-14.769-14.769z"></path>
<path class="path2" d="M11.938 21.231c0 0.123-0.062 0.185-0.185 0.185h-2.831c-0.123 0-0.185-0.062-0.185-0.185v-9.231c0-0.123 0.062-0.185 0.185-0.185h2.831c0.123 0 0.185 0.062 0.185 0.185v9.231z"></path>
<path class="path3" d="M10.338 10.831c-0.862 0-1.6-0.738-1.6-1.6s0.738-1.6 1.6-1.6c0.862 0 1.6 0.738 1.6 1.6 0 0.923-0.677 1.6-1.6 1.6z"></path>
<path class="path4" d="M23.077 14.769v6.523c0 0.123-0.062 0.185-0.185 0.185h-2.831c-0.123 0-0.185-0.062-0.185-0.185v-5.231c0-0.985-0.062-1.846-1.477-1.846-0.985 0-1.477 0.8-1.538 1.415v5.662c0 0.123-0.062 0.185-0.185 0.185h-2.831c-0.123 0-0.185-0.062-0.185-0.185v-9.231c0-0.123 0.062-0.185 0.185-0.185h2.831c0.123 0 0.185 0.062 0.185 0.185v0.862c0.492-0.554 1.477-1.231 2.831-1.231 2.277 0 3.138 1.662 3.323 2.4 0.062 0.062 0.062 0 0.062 0.677z"></path>
</symbol>
<symbol id="facebook" viewBox="0 0 32 32">
<path class="path1" d="M16 32c-8.8 0-16-7.2-16-16s7.2-16 16-16c8.8 0 16 7.2 16 16s-7.2 16-16 16zM16 1.231c-8.123 0-14.769 6.646-14.769 14.769s6.646 14.769 14.769 14.769c8.123 0 14.769-6.646 14.769-14.769s-6.646-14.769-14.769-14.769z"></path>
<path class="path2" d="M20.062 15.754h-2.585v9.292h-3.877v-9.292h-1.846v-3.262h1.846v-2.092c0-1.538 0.738-3.877 3.877-3.877h2.831v3.2h-2.092c-0.308 0-0.8 0.185-0.8 0.862v1.908h2.954l-0.308 3.262z"></path>
</symbol>
</defs>
</svg>
