<svg display="none" version="1.1" xmlns="http://www.w3.org/2000/svg" xmlns:xlink="http://www.w3.org/1999/xlink">
<defs>
<symbol id="icon-magnifying-glass" viewBox="0 0 1024 1024">
	<title>magnifying-glass</title>
	<path class="path1" d="M726.944 124.505c-166.038-166.011-436.169-166.011-602.249 0.041-166.229 166.011-166.257 436.347-0.123 602.426 166.147 166.011 436.333 166.011 602.371-0.014 166.038-166.065 166.038-436.415 0-602.453zM202.875 648.779c-122.948-122.948-122.907-323.092 0.014-445.904 122.935-122.935 322.956-122.935 445.85-0.068 122.866 122.88 122.825 322.819 0 445.945-122.907 122.552-322.901 122.989-445.863 0.027zM996.98 866.222l-182.791-182.368c-0.928-0.915-2.007-1.597-2.963-2.266-16.398 25.259-36.031 49.261-58.204 71.421-22.159 22.159-46.203 41.807-71.721 58.259 0.915 0.942 1.597 2.034 2.526 2.935l182.395 182.764c36.113 36.045 94.74 36.004 130.717 0 36.045-36.004 36.045-94.659 0.041-130.744z" />
</symbol>
<symbol id="icon-screen" viewBox="0 0 1080 1024">
	<title>screen</title>
	<path class="path1" d="M679.281 995.519c-18.719-13.79-20.698-34.461-20.698-34.461l-7.004-44.919h-223.628l-7.031 44.892c0 0-1.952 20.712-20.657 34.488-18.691 13.776-33.451 25.6-18.691 27.607 14.213 1.925 148.33 0.164 158.215 0 9.912 0.164 143.988 1.925 158.201 0 14.718-2.007-0.041-13.804-18.705-27.607zM374.511 561.78c-19.47 60.061-26.911 74.479-86.644 74.943-59.747 0.464 83.831 32.918 184.061-8.615 100.243-41.506-61.495-161.109-97.417-66.328zM485.554 527.633c28.986 23.388 21.996 25.081 52.251-12.52l360.311-392.574c30.242-37.615 31.293-87.054 2.307-110.428-29-23.388-77.005-11.865-107.261 25.723l-306.49 436.019c-30.269 37.588-30.106 30.406-1.12 53.78zM868.598 17.217c-41.738 24.672-46.967 47.077-46.967 47.077s-4.492-5.229-19.415-17.176c22.378-36.605 66.383-29.901 66.383-29.901zM1036.343 159.444h-134.786l-59.515 64.853h172.728v518.868h-949.985v-518.868h552.619l45.616-64.853h-619.834c-23.852 0-43.185 19.36-43.185 43.24v626.961c0 23.88 19.333 43.24 43.185 43.24h993.157c23.852 0 43.185-19.36 43.185-43.24v-626.961c0-23.88-19.347-43.24-43.185-43.24z" />
</symbol>
<symbol id="icon-speaker" viewBox="0 0 1170 1024">
	<title>speaker</title>
	<path class="path1" d="M1170.295 417.437c0-229.635-67.188-415.935-150.269-417.396 0.328-0.014 0.655-0.041 0.997-0.041h-94.795c0 0-222.631 167.24-543.116 232.858-9.776 51.76-16.029 113.459-16.029 184.579s6.253 132.806 16.029 184.566c320.485 65.618 543.116 232.871 543.116 232.871h94.795c-0.341 0-0.655-0.027-0.997-0.041 83.081-1.475 150.269-187.761 150.269-417.396zM988.378 771.714c-10.718 0-22.323-11.127-28.276-17.777-14.432-16.070-28.331-41.097-40.209-72.376-26.583-69.973-41.219-163.785-41.219-264.137s14.636-194.164 41.219-264.137c11.878-31.28 25.777-56.306 40.209-72.376 5.967-6.636 17.558-17.777 28.276-17.777s22.323 11.141 28.276 17.777c14.432 16.070 28.331 41.097 40.209 72.376 26.583 69.973 41.219 163.785 41.219 264.137s-14.636 194.164-41.219 264.137c-11.878 31.28-25.791 56.306-40.209 72.376-5.953 6.649-17.558 17.777-28.276 17.777zM287.785 417.437c0-59.378 4.355-117.064 12.629-170.394-54.135 7.496-101.649 11.796-160.386 11.796-76.636 0-76.636 0-76.636 0l-63.392 108.216v100.762l63.379 108.216c0 0 0 0 76.636 0 58.737 0 106.25 4.314 160.386 11.796-8.26-53.33-12.616-111.015-12.616-170.394zM420.741 660.767l-146.282-28.017 93.539 367.479c4.847 19.005 23.702 28.617 41.929 21.313l135.496-54.231c18.227-7.291 25.518-27.389 16.22-44.674l-140.902-261.871zM988.378 553.984c-4.137 0-8.602-4.287-10.909-6.854-5.571-6.199-10.923-15.838-15.497-27.894-10.24-26.965-15.892-63.119-15.892-101.799s5.639-74.834 15.892-101.799c4.574-12.056 9.94-21.695 15.497-27.894 2.307-2.553 6.772-6.854 10.909-6.854s8.602 4.287 10.895 6.854c5.571 6.199 10.923 15.838 15.497 27.894 10.24 26.965 15.892 63.119 15.892 101.799s-5.639 74.834-15.892 101.799c-4.574 12.056-9.94 21.695-15.497 27.894-2.294 2.553-6.772 6.854-10.895 6.854z" />
</symbol>
</defs>
</svg>
