<svg display="none" version="1.1" xmlns="http://www.w3.org/2000/svg" xmlns:xlink="http://www.w3.org/1999/xlink">
<defs>
<symbol id="icon-linkdin" viewBox="0 0 1024 1024">
	<title>linkdin</title>
	<path class="path1" d="M512 20.48c-271.462 0-491.52 220.058-491.52 491.52s220.058 491.52 491.52 491.52 491.52-220.058 491.52-491.52-220.058-491.52-491.52-491.52zM391.68 715.725h-99.533v-320.256h99.533v320.256zM341.299 356.147c-31.437 0-51.763-22.323-51.763-49.818 0-28.16 20.941-49.766 53.043-49.766s51.763 21.606 52.378 49.766c0.051 27.546-20.275 49.818-53.658 49.818zM755.149 715.725h-99.482v-177.51c0-41.267-14.438-69.376-50.432-69.376-27.494 0-43.827 18.995-51.098 37.325-2.611 6.502-3.277 15.718-3.277 24.832v184.678h-99.584v-218.112c0-39.936-1.28-73.37-2.611-102.144h86.426l4.608 44.493h1.946c13.107-20.941 45.21-51.712 98.918-51.712 65.485 0 114.586 43.827 114.586 138.138v189.389z" />
</symbol>
<symbol id="icon-youtube" viewBox="0 0 1024 1024">
	<title>youtube</title>
	<path class="path1" d="M0 786.286v-548.571q0-68 48.286-116.286t116.286-48.286h548.571q68 0 116.286 48.286t48.286 116.286v548.571q0 68-48.286 116.286t-116.286 48.286h-548.571q-68 0-116.286-48.286t-48.286-116.286zM124.571 668.571q0 100.571 11.429 148.571 5.714 24.571 24.286 41.714t43.143 20q78.286 8.571 235.429 8.571t235.429-8.571q24.571-2.857 43.143-20t24.286-41.714q11.429-48 11.429-148.571 0-101.143-10.857-148.571-5.714-25.143-24.571-42t-43.429-19.714q-77.714-8.571-235.429-8.571-157.143 0-234.857 8.571-25.143 2.857-43.714 19.714t-24.286 42q-11.429 49.714-11.429 148.571zM171.429 562.857v-40h132.571v40h-45.714v241.714h-42.286v-241.714h-44.571zM226.286 127.429l13.714 39.429t13.143 39.429q20 58.857 26.286 90.286v114.857h42.286v-114.857l51.429-169.143h-42.857l-29.143 111.429-30.286-111.429h-44.571zM309.714 760.571v-165.714h37.714v154.286q0 13.714 0.571 14.857 0.571 8.571 8.571 8.571 11.429 0 24-17.714v-160h38.286v209.714h-38.286v-22.857q-22.286 25.714-43.429 25.714-18.857 0-24-16-3.429-9.143-3.429-30.857zM373.714 342.857q0 33.143 12 49.714 15.429 21.714 44.571 21.714 28 0 44.571-21.714 12-15.429 12-49.714v-74.286q0-33.143-12-49.714-16.571-21.714-44.571-21.714-29.143 0-44.571 21.714-12 16.571-12 49.714v74.286zM412 350.286v-89.143q0-29.714 18.286-29.714t18.286 29.714v89.143q0 29.143-18.286 29.143t-18.286-29.143zM451.429 804.571v-281.714h38.286v92q18.286-22.857 38.857-22.857 23.429 0 30.286 24 4 12 4 42.286v83.429q0 29.714-4 41.714-6.857 24-30.286 24-20 0-38.857-23.429v20.571h-38.286zM489.714 763.429q9.143 9.143 18.857 9.143 16.571 0 16.571-28v-89.714q0-28.571-16.571-28.571-9.714 0-18.857 9.143v128zM518.286 367.429q0 21.143 3.429 31.429 6.286 15.429 24.571 15.429 20.571 0 44-25.714v22.857h38.286v-211.429h-38.286v161.714q-12.571 17.714-24 17.714-8.571 0-9.143-9.143-0.571-1.143-0.571-14.857v-155.429h-38.286v167.429zM592.571 736.571v-73.714q0-33.714 11.429-49.143 16.571-21.714 45.714-21.714t44.571 21.714q12 16 12 49.143v43.429h-76v37.143q0 29.143 19.429 29.143 13.714 0 17.143-14.857 0-0.571 0.286-4t0.286-9.429v-12.286h38.857v5.143q0 16.571-1.143 24.571-1.714 12.571-8.571 22.857-15.429 22.857-45.714 22.857-29.714 0-46.286-21.714-12-15.429-12-49.143zM630.286 674.857h37.714v-19.429q0-29.143-18.857-29.143t-18.857 29.143v19.429z" />
</symbol>
<symbol id="icon-facebook" viewBox="0 0 1024 1024">
	<title>facebook</title>
	<path class="path1" d="M512 0c282.77 0 512 229.23 512 512 0 261.094-195.438 476.53-448 508.026v-380.026h176l16-128h-192v-64c0-35.346 28.654-64 64-64h128v-128h-128c-106.040 0-192 85.96-192 192v64h-96v128h96v380.026c-252.562-31.496-448-246.932-448-508.026 0-282.77 229.23-512 512-512z" />
</symbol>
<symbol id="icon-google" viewBox="0 0 1024 1024">
	<title>google</title>
	<path class="path1" d="M437.006 818.162c0 75.068-46.39 134.392-177.758 139.176-76.984-43.786-141.49-106.952-186.908-182.866 23.69-58.496 97.692-103.046 182.316-102.114 24.022 0.252 46.41 4.114 66.744 10.7 55.908 38.866 101 63.152 112.324 107.448 2.114 8.964 3.282 18.206 3.282 27.656zM512 0c-147.94 0-281.196 62.77-374.666 163.098 36.934-20.452 80.538-32.638 126.902-32.638 67.068 0 256.438 0 256.438 0l-57.304 60.14h-67.31c47.496 27.212 72.752 83.248 72.752 145.012 0 56.692-31.416 102.38-75.78 137.058-43.28 33.802-51.492 47.966-51.492 76.734 0 24.542 51.722 61.098 75.5 78.936 82.818 62.112 99.578 101.184 99.578 178.87 0 78.726-68.936 157.104-185.866 183.742 56.348 21.338 117.426 33.048 181.248 33.048 282.77 0 512-229.23 512-512s-229.23-512-512-512zM768 384v128h-64v-128h-128v-64h128v-128h64v128h128v64h-128zM365.768 339.472c11.922 90.776-27.846 149.19-96.934 147.134-69.126-2.082-134.806-65.492-146.74-156.242-11.928-90.788 34.418-160.254 103.53-158.196 69.090 2.074 128.22 76.542 140.144 167.304zM220.886 642.068c-74.68 0-138.128 25.768-182.842 63.864-24.502-59.82-38.044-125.29-38.044-193.932 0-56.766 9.256-111.368 26.312-162.396 7.374 99.442 77.352 176.192 192.97 176.192 8.514 0 16.764-0.442 24.874-1.022-7.95 15.23-13.622 32.19-13.622 49.982 0 29.97 16.488 47.070 36.868 66.894-15.402 0-30.27 0.418-46.516 0.418z" />
</symbol>
</defs>
</svg>
